<?xml version="1.0" standalone="no"?>
<!DOCTYPE svg PUBLIC "-//W3C//DTD SVG 1.1//EN" "http://www.w3.org/Graphics/SVG/1.1/DTD/svg11.dtd" >
<svg xmlns="http://www.w3.org/2000/svg" xmlns:xlink="http://www.w3.org/1999/xlink" version="1.1">
<metadata>
Created by FontForge 20230101 at Fri May 21 00:33:36 2004
 By trabajo
</metadata>
<defs>
<font id="PillGothic300mg-Thin" horiz-adv-x="452" >
  <font-face 
    font-family="Pill Gothic 300mg Th"
    font-weight="250"
    font-stretch="normal"
    units-per-em="1000"
    panose-1="2 0 5 3 3 0 0 2 0 4"
    ascent="800"
    descent="-200"
    x-height="490"
    cap-height="680"
    bbox="-30 -244 803 906"
    underline-thickness="50"
    underline-position="-100"
    unicode-range="U+0020-FB04"
  />
<missing-glyph horiz-adv-x="218" 
 />
    <glyph glyph-name="germandbls" unicode="ss" horiz-adv-x="526" 
d="M55 490h43v107q0 68 30.5 107.5t101.5 39.5q17 0 34.5 -5t33.5 -10l-13 -37q-12 5 -27 10t-28 5q-51 0 -73 -29t-22 -80v-108h320v-35l-119 -168h29q48 0 74 -25.5t26 -85.5v-80q0 -25 -10 -44t-26.5 -32.5t-37 -20.5t-41.5 -7q-19 0 -38 5t-36 14.5t-30.5 24.5t-20.5 35
l33 17q12 -29 37.5 -44t54.5 -15q31 0 54.5 15t23.5 52v80q0 35 -15 54.5t-47 19.5h-76v37l120 166h-275v-453h-37v453h-43v37z" />
    <glyph glyph-name="fi" unicode="fi" horiz-adv-x="472" 
d="M242 741q35 0 62.5 -9.5t47.5 -21.5q23 -14 41 -32l-25 -35q-17 18 -37 31q-17 11 -40 20.5t-49 9.5q-51 0 -72.5 -25t-21.5 -67v-122h96v-37h-96v-453h-37v453h-86v37h86v122q0 35 10 59t28 40t42 23t51 7zM341 490h37v-490h-37v490z" />
    <glyph glyph-name="fl" unicode="fl" horiz-adv-x="514" 
d="M242 741q16 0 39.5 -3.5t47.5 -8.5t45 -12t31 -13h14v-704h-38v675q-13 7 -33 12.5t-40.5 9t-38.5 5.5t-27 2q-51 0 -72.5 -25t-21.5 -67v-122h96v-37h-97v-453h-37v453h-85v37h86v122q0 35 10 59t28 40t42 23t51 7z" />
    <glyph glyph-name="arrowright" unicode="&#x2d;&#x3e;" horiz-adv-x="437" 
d="M221 449l161 -196l-158 -192l-25 22l122 152h-266v37h266l-125 155z" />
    <glyph glyph-name="arrowleft" unicode="&#x3c;&#x2d;" horiz-adv-x="437" 
d="M241 426l-125 -155h266v-37h-266l122 -142l-25 -22l-158 182l161 196z" />
    <glyph glyph-name="smiley" unicode="&#x28;&#x3a;" horiz-adv-x="793" 
d="M38 350q0 75 28.5 141t77.5 114.5t115 77t141 28.5t140.5 -28.5t114 -77t77 -114.5t28.5 -141t-28.5 -140.5t-77 -114t-114 -77t-140.5 -28.5t-141 28.5t-115 77t-77.5 114t-28.5 140.5zM75 350q0 -67 26 -125.5t70 -102.5t103.5 -69.5t126.5 -25.5t125.5 25.5t102 69.5
t69 102.5t25.5 125.5t-25.5 126t-69.5 103t-102.5 69.5t-125.5 25.5t-126 -25.5t-103.5 -69.5t-70 -103t-25.5 -126zM604 283q-19 -56 -63 -90t-100 -34h-80q-54 0 -97.5 34t-63.5 88l36 15q16 -44 49.5 -72t75.5 -28h80q45 0 80.5 29.5t51.5 72.5zM263 516h66v-128h-66v128
zM474 516h66v-128h-66v128z" />
    <glyph glyph-name="wink" unicode="&#x28;&#x3b;" horiz-adv-x="793" 
d="M38 351q0 75 28.5 140.5t77.5 113.5t115 76t141 28t140.5 -28t114 -76t77 -113.5t28.5 -140.5t-28.5 -140.5t-77 -114t-114 -77t-140.5 -28.5t-141 28.5t-115 77t-77.5 114t-28.5 140.5zM75 351q0 -67 26 -125.5t70 -102.5t103.5 -69.5t126.5 -25.5t125.5 25.5t102 69.5
t69 102.5t25.5 125.5t-25.5 125.5t-69.5 102t-102.5 68.5t-125.5 25t-126 -25t-103.5 -68.5t-70 -102t-25.5 -125.5zM600 269q-19 -57 -63 -91t-101 -34h-80q-53 0 -96.5 34.5t-63.5 88.5l36 14q15 -44 49 -72t75 -28h80q46 0 81.5 29.5t51.5 72.5zM245 495h79v-108h-79v108
zM431 421v41h174v-41h-174z" />
    <glyph glyph-name="ff" unicode="ff" horiz-adv-x="450" 
d="M202 724q33 0 68.5 -13.5t64.5 -30.5q19 26 46.5 38.5t54.5 12.5q20 0 39 -5t33 -10l-12 -36q-14 6 -31.5 10t-28.5 4q-25 0 -42 -9t-27 -24t-14 -35t-4 -43v-95h95v-37h-95v-451h-37v451h-83v37h83v99v32t6 27q-32 21 -63.5 31t-52.5 10q-25 0 -40.5 -9t-24 -23.5
t-11.5 -33.5t-3 -39v-93h73v-37h-73v-452h-37v452h-86v37h86v93q0 69 31 105.5t85 36.5z" />
    <glyph glyph-name="f_j" unicode="fj" horiz-adv-x="492" 
d="M260 730q32 0 67.5 -15t69.5 -42l-22 -38q-43 36 -68.5 47t-46.5 11q-27 0 -45 -8t-29 -22.5t-15.5 -33.5t-4.5 -41v-99h96v-37h-97v-452h-37v452h-86v37h87v99q0 74 36.5 108t94.5 34zM345 490h37v-465q0 -66 -11.5 -108.5t-32 -70.5t-48 -44.5t-59.5 -30.5l-18 29
q36 15 61 32.5t41 42.5t23 61.5t7 89.5v464z" />
    <glyph glyph-name="T_h" unicode="Th" horiz-adv-x="847" 
d="M15 643v37h463v-37h-240v-643h-37v643h-186zM662 501q70 0 105 -41t35 -112v-348h-37v348q0 54 -24.5 85t-78.5 31q-28 0 -54.5 -14t-47 -36.5t-33 -50.5t-12.5 -55v-308h-37v680h37v-274q8 19 24.5 36t36.5 30t42.5 21t43.5 8z" />
    <glyph glyph-name=".notdef" horiz-adv-x="218" 
 />
    <glyph glyph-name=".null" horiz-adv-x="0" 
 />
    <glyph glyph-name="nonmarkingreturn" horiz-adv-x="218" 
 />
    <glyph glyph-name="space" unicode=" " horiz-adv-x="218" 
 />
    <glyph glyph-name="exclam" unicode="!" horiz-adv-x="228" 
d="M144 235h-37v445h37v-445zM91 85h69v-85h-69v85z" />
    <glyph glyph-name="quotedbl" unicode="&#x22;" horiz-adv-x="258" 
d="M65 680h37v-221h-37v221zM156 680h37v-221h-37v221z" />
    <glyph glyph-name="numbersign" unicode="#" horiz-adv-x="609" 
d="M388 451l30 199h37l-29 -199h128v-36h-133l-30 -198h143v-38h-147l-26 -179h-38l25 179h-110l-27 -179h-37l25 179h-144v38h150l30 198h-161v36h167l28 199h38l-29 -199h110zM353 217l30 198h-111l-29 -198h110z" />
    <glyph glyph-name="dollar" unicode="$" horiz-adv-x="442" 
d="M387 278v-117q0 -75 -39.5 -118t-102.5 -46v-128h-37v128q-62 5 -97.5 32.5t-53.5 79.5l35 14q11 -28 24.5 -45t30 -27t36.5 -13.5t43 -3.5q66 0 95 32t29 95v90l-276 176v84q0 53 12.5 85t32.5 50t45.5 25t51.5 9v100h37v-101q57 -5 86.5 -31t46.5 -75l-35 -16
q-20 54 -49.5 70t-68.5 16q-20 0 -41.5 -3.5t-39.5 -17t-29.5 -40t-11.5 -72.5v-57z" />
    <glyph glyph-name="percent" unicode="%" horiz-adv-x="584" 
d="M278 482q0 -53 -29.5 -75t-72.5 -22q-52 0 -76.5 27.5t-24.5 69.5v109q0 53 30 76t71 23q54 0 78 -28.5t24 -70.5v-109zM509 88q0 -53 -29 -75.5t-72 -22.5q-53 0 -77 28t-24 70v109q0 53 30 78t71 25q27 0 46 -8.5t31.5 -22.5t18 -32.5t5.5 -39.5v-109zM112 482
q0 -33 19 -46.5t45 -13.5q35 0 50 17t15 43v109q0 35 -19 48.5t-46 13.5q-32 0 -48 -18t-16 -44v-109zM344 88q0 -33 19 -47t45 -14q35 0 49.5 17.5t14.5 43.5v109q0 35 -18.5 50.5t-45.5 15.5q-32 0 -48 -20t-16 -46v-109zM75 0l337 680h45l-335 -680h-47z" />
    <glyph glyph-name="ampersand" unicode="&#x26;" horiz-adv-x="570" 
d="M537 276l-103 -135l91 -130l-29 -23l-85 121q-38 -55 -87 -87t-103 -32q-34 0 -64 10.5t-52.5 31t-36 52t-13.5 73.5q0 27 12.5 57t32.5 61t46 62.5t54 61.5l-72 102v77q0 59 28.5 85.5t71.5 26.5q57 0 82 -32.5t25 -89.5q0 -30 -7.5 -54t-19.5 -44.5t-27.5 -38.5
t-31.5 -36l160 -225l100 127zM221 27q26 0 49.5 10t44.5 26t39.5 36t33.5 40l-163 230q-28 -26 -52 -56t-42 -58.5t-28.5 -54.5t-10.5 -44q0 -60 34.5 -94.5t94.5 -34.5zM164 512l61 -92q37 36 55 70t18 75q0 27 -4.5 44.5t-13.5 27t-22 13t-30 3.5q-25 0 -38 -9
t-18.5 -21.5t-6 -25t-0.5 -20.5z" />
    <glyph glyph-name="quotesingle" unicode="'" horiz-adv-x="207" 
d="M85 700h37v-222h-37v222z" />
    <glyph glyph-name="parenleft" unicode="(" horiz-adv-x="309" 
d="M95 452q0 51 9 97.5t26.5 85.5t42.5 69.5t56 49.5l20 -30q-53 -32 -85 -102t-32 -170v-369q0 -103 32 -170t85 -100l-20 -32q-31 19 -56 49.5t-42.5 69.5t-26.5 85.5t-9 97.5v369z" />
    <glyph glyph-name="parenright" unicode=")" horiz-adv-x="308" 
d="M213 95q0 -51 -9 -99t-26 -89t-41.5 -73t-56.5 -51l-20 32q53 33 84.5 103.5t31.5 176.5v347q0 100 -31.5 173t-84.5 105l20 34q32 -19 56.5 -51t41.5 -73t26 -89t9 -99v-347z" />
    <glyph glyph-name="asterisk" unicode="*" horiz-adv-x="381" 
d="M315 625l11 -35l-105 -33l65 -88l-30 -22l-65 88l-66 -88l-30 22l65 88l-105 33l11 35l106 -33v108h38v-108z" />
    <glyph glyph-name="plus" unicode="+" horiz-adv-x="481" 
d="M259 402h187v-37h-187v-235h-37v235h-187v37h187v218h37v-218z" />
    <glyph glyph-name="comma" unicode="," horiz-adv-x="160" 
d="M100 70v-26q0 -34 -3.5 -58t-10 -42t-16 -32t-21.5 -28l-25 17q9 13 16 24.5t11.5 25t6.5 29.5t2 37v53h40z" />
    <glyph glyph-name="hyphen" unicode="-" horiz-adv-x="285" 
d="M55 297h175v-37h-175v37z" />
    <glyph glyph-name="period" unicode="." horiz-adv-x="226" 
d="M75 84h76v-84h-76v84z" />
    <glyph glyph-name="slash" unicode="/" horiz-adv-x="306" 
d="M25 -85l224 765h38l-224 -765h-38z" />
    <glyph glyph-name="zero" unicode="0" horiz-adv-x="568" 
d="M284 690q44 0 80.5 -12t62.5 -35.5t40.5 -57t14.5 -76.5v-342q0 -43 -14.5 -76t-41 -55.5t-62.5 -34t-80 -11.5t-80.5 11.5t-63 34t-41 55.5t-14.5 76v342q0 42 14.5 76t41 57t63 35.5t80.5 12.5zM445 509q0 69 -45 106.5t-116 37.5q-72 0 -117 -37.5t-45 -106.5v-342
q0 -69 45 -104.5t117 -35.5q71 0 116 35t45 105v342z" />
    <glyph glyph-name="one" unicode="1" horiz-adv-x="391" 
d="M194 643h-124v37h161v-680h-37v643z" />
    <glyph glyph-name="two" unicode="2" 
d="M256 320q-48 -33 -77.5 -66t-46.5 -67.5t-23 -71.5t-6 -78h299v-37h-336v22q0 47 6.5 89t24 81.5t49 76.5t81.5 73q35 25 58.5 45.5t37.5 42.5t20 47.5t6 59.5q0 60 -33 89.5t-83 29.5q-47 0 -80 -22.5t-65 -57.5l-27 25q32 38 75 65t100 27q76 0 113 -43.5t37 -112.5
q0 -28 -2.5 -53.5t-15 -51t-39 -53t-73.5 -59.5z" />
    <glyph glyph-name="three" unicode="3" horiz-adv-x="500" 
d="M418 477q0 -33 -9.5 -54t-24.5 -34.5t-32.5 -21.5t-33.5 -14q22 -9 41 -19.5t33.5 -25t23 -34t8.5 -46.5v-110q0 -36 -15.5 -60.5t-41 -39.5t-57.5 -21.5t-65 -6.5q-38 0 -71 12.5t-57 33t-38 46.5t-14 53h37q0 -24 13.5 -44t34.5 -34t46.5 -22t48.5 -8q63 0 102.5 24.5
t39.5 66.5v110q0 26 -12.5 46t-32.5 34t-44.5 21.5t-48.5 7.5h-67v37h67q63 0 97.5 29.5t34.5 73.5v70q0 56 -35.5 81t-97.5 25q-31 0 -56.5 -10.5t-44 -27.5t-28.5 -38t-10 -43h-37q0 37 15.5 66t40.5 49t56.5 30.5t63.5 10.5q49 0 82 -12t52.5 -32t27.5 -45.5t8 -53.5v-70
z" />
    <glyph glyph-name="four" unicode="4" horiz-adv-x="444" 
d="M325 253h99v-37h-99v-216h-37v216h-268v37l247 427h58v-427zM291 646h-4l-225 -393h226z" />
    <glyph glyph-name="five" unicode="5" horiz-adv-x="486" 
d="M240 399q88 0 131.5 -39.5t43.5 -104.5v-121q0 -40 -14 -67.5t-38 -44.5t-55 -24.5t-66 -7.5q-48 0 -81 12.5t-53 34.5t-29 50.5t-9 59.5h37q0 -31 11.5 -53.5t30 -37.5t43 -22t50.5 -7q72 0 104 29t32 78v121q0 30 -12 50.5t-31.5 33t-45 18t-53.5 5.5h-144l37 318h253
v-37h-219l-31 -244h108z" />
    <glyph glyph-name="six" unicode="6" horiz-adv-x="500" 
d="M254 425q44 0 76 -13t53 -34.5t31.5 -49.5t10.5 -58v-126q0 -39 -14 -67.5t-37 -48t-54 -29t-66 -9.5q-43 0 -75 13t-53 34t-31 49t-10 58v404q0 36 14.5 62.5t38.5 44t54.5 26.5t61.5 9q27 0 49 -6.5t39 -17t29 -23.5t19 -25l-26 -25q-20 26 -43 43t-67 17
q-34 0 -58.5 -10t-41 -25.5t-24.5 -34t-8 -35.5v-199q26 45 58 60.5t74 15.5zM388 270q0 30 -11 52t-29.5 36.5t-42.5 22t-51 7.5q-33 0 -58 -11.5t-41.5 -30t-24.5 -42t-8 -47.5v-113q0 -30 10.5 -52t28.5 -36.5t42 -21.5t51 -7q34 0 59 9.5t41.5 25.5t25 37.5t8.5 44.5
v126z" />
    <glyph glyph-name="seven" unicode="7" horiz-adv-x="373" 
d="M10 680h333l-184 -680h-41l173 643h-281v37z" />
    <glyph glyph-name="eight" unicode="8" horiz-adv-x="510" 
d="M413 477q0 -48 -24.5 -78t-56.5 -45q45 -21 68.5 -54.5t23.5 -71.5v-92q0 -36 -13.5 -63t-36.5 -45.5t-54 -28t-66 -9.5q-43 0 -75 12.5t-53 33t-31 46.5t-10 54v92q0 45 28.5 77.5t64.5 48.5q-83 44 -83 123v75q0 36 13 62t34.5 43t50.5 25t61 8q41 0 70.5 -11.5
t49.5 -30.5t29.5 -44t9.5 -52v-75v0zM387 228q0 27 -10 46.5t-26.5 33t-39 20t-47.5 6.5h-18q-63 0 -93.5 -31.5t-30.5 -74.5v-92q0 -27 10.5 -47t28.5 -34t42 -21t51 -7q34 0 59 9t41.5 24.5t24.5 35t8 40.5v92zM132 477q0 -27 9 -46.5t24.5 -32t36.5 -19t44 -8.5h18
q54 6 83 35.5t29 70.5v75q0 27 -10 46.5t-26.5 31.5t-39 17.5t-46.5 5.5q-61 0 -91.5 -30t-30.5 -71v-75v0z" />
    <glyph glyph-name="nine" unicode="9" horiz-adv-x="501" 
d="M246 716q43 0 74.5 -12.5t52.5 -32.5t31 -45.5t10 -51.5v-433q0 -38 -13.5 -66.5t-36.5 -47t-53.5 -28t-64.5 -9.5q-20 0 -42.5 5t-43.5 14t-39 21t-29 25l26 26q13 -12 30 -21.5t34.5 -17t33.5 -11.5t28 -4q68 0 100.5 31t32.5 83v177q-26 -35 -58.5 -50.5t-72.5 -15.5
q-44 0 -76 13t-53 34.5t-31.5 49.5t-10.5 58v167q0 35 13.5 61.5t37 44.5t54.5 27t66 9zM377 574q0 26 -10.5 45.5t-28.5 33t-42 20t-50 6.5q-34 0 -59.5 -9.5t-42 -24.5t-24.5 -33.5t-8 -37.5v-167q0 -29 10.5 -51t29 -37t43 -22.5t51.5 -7.5q33 0 58 11.5t41 30t24 42
t8 47.5v154z" />
    <glyph glyph-name="colon" unicode=":" horiz-adv-x="260" 
d="M95 96h70v-96h-70v96zM95 490h70v-94h-70v94z" />
    <glyph glyph-name="semicolon" unicode=";" horiz-adv-x="403" 
d="M151 339h-49v97h49v-97zM149 70v-26q0 -34 -3.5 -58t-10 -42t-16 -32t-21.5 -28l-25 17q9 13 16 24.5t11.5 25t6.5 29.5t2 37v53h40z" />
    <glyph glyph-name="less" unicode="&#x3c;" horiz-adv-x="510" 
d="M436 -9l-381 248l365 261l17 -31l-318 -229l336 -216z" />
    <glyph glyph-name="equal" unicode="=" horiz-adv-x="557" 
d="M55 490h447v-37h-447v37zM55 270h447v-37h-447v37z" />
    <glyph glyph-name="greater" unicode="&#x3e;" horiz-adv-x="486" 
d="M431 239l-360 -248l-16 34l315 215l-297 228l19 32z" />
    <glyph glyph-name="question" unicode="?" horiz-adv-x="327" 
d="M155 690q63 0 90 -30t27 -93v-80q0 -29 -14.5 -56t-33.5 -46q-22 -22 -36 -37.5t-22 -32t-11.5 -36.5t-3.5 -50v-36h-39v81q0 40 19.5 66.5t48.5 56.5q23 23 38 44t17 50v67q0 49 -16.5 72t-64.5 23q-15 0 -29 -6t-26.5 -15.5t-24 -20.5t-21.5 -21l-23 28q26 28 56.5 50
t68.5 22zM101 85h71v-85h-71v85z" />
    <glyph glyph-name="at" unicode="@" horiz-adv-x="687" 
d="M374 715q71 0 119.5 -19t78.5 -52.5t43 -80t13 -100.5q0 -149 -30.5 -223.5t-102.5 -74.5q-32 0 -49 16t-29 39q-26 -38 -56 -53.5t-68 -15.5q-30 0 -49.5 6.5t-31 18t-16 26.5t-4.5 33q0 43 5.5 85t10.5 77q4 35 17.5 64.5t34 51t46.5 33.5t55 12q107 0 107 -79
q0 -26 -3.5 -57.5t-6.5 -54.5q-3 -22 -8.5 -45t-7.5 -50q0 -35 15 -52.5t38 -17.5q28 0 46.5 14.5t29.5 46t15.5 80.5t4.5 119q0 59 -15.5 100.5t-43.5 67t-68 37t-90 11.5q-66 0 -115 -22t-82.5 -60t-51.5 -88t-23 -106q-4 -44 -6 -72.5t-3 -45.5t-1.5 -25t-0.5 -11
q0 -119 57 -171t161 -52q44 0 91.5 10.5t78.5 30.5l16 -33q-21 -14 -45 -23t-49 -14t-48.5 -6.5t-43.5 -1.5q-74 0 -123 19.5t-78 54t-41 82t-12 102.5v12t0.5 25.5t3 46.5t6.5 74q8 80 35 138.5t68.5 96.5t94.5 57t111 19zM295 188q37 0 58.5 14t33 32t15.5 35t5 23
q0 -2 3.5 20t8 52t8.5 61t4 48q0 16 -6 25.5t-16.5 15t-23.5 7.5t-28 2q-30 0 -49.5 -10.5t-32 -28t-19.5 -39.5t-11 -46q-7 -33 -11.5 -72.5t-4.5 -83.5q0 -34 19.5 -44.5t46.5 -10.5z" />
    <glyph glyph-name="A" unicode="A" horiz-adv-x="506" 
d="M270 690l211 -690h-38l-75 241h-227l-77 -241h-39l216 690h29zM357 278l-102 342l-104 -342h206z" />
    <glyph glyph-name="B" unicode="B" horiz-adv-x="504" 
d="M417 474q0 -46 -22.5 -76t-48.5 -44q44 -14 68 -52t24 -85v-65q0 -37 -13 -65t-34.5 -47.5t-49 -29.5t-56.5 -10h-190v680h169q41 0 70 -13t47.5 -34.5t27 -48.5t8.5 -55v-55v0zM401 216q0 59 -32 88.5t-84 29.5h-153v-297h153q30 0 52 11.5t36 29t21 37.5t7 36v65z
M132 371h145q48 0 75.5 27.5t27.5 75.5v55q0 57 -32 85.5t-84 28.5h-132v-272z" />
    <glyph glyph-name="C" unicode="C" horiz-adv-x="480" 
d="M257 653q-41 0 -70.5 -12.5t-48 -33t-27.5 -47.5t-9 -57v-330q0 -40 11.5 -68t32 -45.5t49 -25t62.5 -7.5q51 0 89 17t63 45l22 -29q-35 -37 -80 -53.5t-94 -16.5q-53 0 -90 14.5t-59.5 39t-32.5 58t-10 71.5v330q0 48 15 83t40.5 58t61 34.5t75.5 11.5q63 0 107.5 -28.5
t68.5 -64.5l-29 -27q-28 40 -66.5 61.5t-80.5 21.5z" />
    <glyph glyph-name="D" unicode="D" horiz-adv-x="531" 
d="M256 680q51 0 90 -15t65.5 -41.5t40 -62.5t13.5 -77v-289q0 -54 -17 -91.5t-45.5 -60.5t-66 -33.5t-78.5 -10.5h-163v681h161zM428 484q0 43 -15 73.5t-39.5 49.5t-55 27.5t-62.5 8.5h-124v-607h123q86 0 129.5 43.5t43.5 115.5v289z" />
    <glyph glyph-name="E" unicode="E" horiz-adv-x="445" 
d="M132 331v-294h258v-37h-295v680h274v-37h-237v-275h199v-37h-199z" />
    <glyph glyph-name="F" unicode="F" horiz-adv-x="403" 
d="M368 643h-236v-265h199v-37h-199v-341h-37v680h273v-37z" />
    <glyph glyph-name="G" unicode="G" horiz-adv-x="540" 
d="M269 335h196v-272q-26 -27 -74.5 -50t-117.5 -23q-51 0 -90 15.5t-65.5 42t-39.5 62.5t-13 76v308q0 50 17.5 87t47 61t66.5 36t76 12q58 0 100.5 -25.5t66.5 -62.5l-26 -22q-28 38 -65.5 55.5t-75.5 17.5q-40 0 -72 -13t-53.5 -35t-33 -50.5t-11.5 -60.5v-308
q0 -43 14 -73t38 -49t55 -28t64 -9q35 0 59 4t41 11t30 16t25 19v221h-159v37z" />
    <glyph glyph-name="H" unicode="H" horiz-adv-x="601" 
d="M467 680h37v-680h-37v309h-335v-309h-37v680h37v-334h335v334z" />
    <glyph glyph-name="I" unicode="I" horiz-adv-x="269" 
d="M115 680h37v-680h-37v680z" />
    <glyph glyph-name="J" unicode="J" horiz-adv-x="425" 
d="M293 680h37v-559q0 -33 -11.5 -58t-32 -41t-48.5 -24t-60 -8q-69 0 -111 31.5t-42 99.5h37q0 -50 33 -72t83 -22q49 0 82 21.5t33 72.5v559z" />
    <glyph glyph-name="K" unicode="K" horiz-adv-x="510" 
d="M476 680l-270 -320l299 -360h-48l-277 331l-48 -56v-275h-37v680h37v-352l300 352h44z" />
    <glyph glyph-name="L" unicode="L" horiz-adv-x="416" 
d="M132 680v-643h279v-37h-316v680h37z" />
    <glyph glyph-name="M" unicode="M" horiz-adv-x="681" 
d="M140 680l201 -425l201 425h43v-680h-37v605l-196 -420h-24l-196 417v-602h-37v680h45z" />
    <glyph glyph-name="N" unicode="N" horiz-adv-x="618" 
d="M486 680h37v-680h-43l-348 619v-619h-37v680h49l342 -623v623z" />
    <glyph glyph-name="O" unicode="O" horiz-adv-x="563" 
d="M287 690q44 0 82.5 -14t67 -40t44.5 -62.5t16 -80.5v-308q0 -45 -16 -81.5t-44 -61.5t-66.5 -38.5t-83.5 -13.5h-12q-46 0 -84.5 13.5t-66.5 38.5t-43.5 61t-15.5 82v308q0 44 16 80t44.5 62t66.5 40.5t82 14.5h13v0zM460 493q0 35 -14 64t-38 50.5t-55 33.5t-66 12h-13
q-35 0 -66.5 -12t-55 -33t-37 -50.5t-13.5 -64.5v-308q0 -37 13 -66.5t36 -50t55 -31t69 -10.5h12q38 0 69.5 10.5t54.5 31t36 50t13 66.5v308z" />
    <glyph glyph-name="P" unicode="P" horiz-adv-x="473" 
d="M265 680q33 0 61 -11t48 -31t31.5 -48t11.5 -61v-99q0 -33 -11.5 -58.5t-32 -43t-48.5 -27t-60 -9.5h-133v-292h-37v680h170zM380 529q0 24 -9 45t-24.5 36t-36.5 24t-45 9h-133v-314h133q49 0 82 25t33 76v99z" />
    <glyph glyph-name="Q" unicode="Q" horiz-adv-x="564" 
d="M393 13q-45 -23 -106 -23h-12q-46 0 -84.5 13.5t-66.5 38.5t-43.5 61t-15.5 82v308q0 44 16 80t44.5 62t66.5 40.5t82 14.5h13q44 0 82.5 -14t67 -40t44.5 -62.5t16 -80.5v-308q0 -49 -18.5 -87t-51.5 -63l19 -29q11 -19 30 -33.5t54 -14.5v-37q-22 0 -38.5 3t-30 10.5
t-26.5 20.5t-27 33zM460 493q0 35 -14 64t-38 50.5t-55 33.5t-66 12h-13q-35 0 -66.5 -12t-55 -33t-37 -50.5t-13.5 -64.5v-308q0 -37 13 -66.5t36 -50t55 -31t69 -10.5h12q50 0 87 18l-87 142l30 22l91 -143q24 20 38 50t14 69v308z" />
    <glyph glyph-name="R" unicode="R" horiz-adv-x="514" 
d="M451 451q0 -70 -37.5 -101.5t-96.5 -36.5l142 -313h-43l-139 313h-144v-313h-37v680h204q33 0 60.5 -9t47.5 -27.5t31.5 -46t11.5 -65.5v-81v0zM133 350h165q54 0 85 23t31 78v81q0 53 -31 82t-85 29h-165v-293z" />
    <glyph glyph-name="S" unicode="S" horiz-adv-x="462" 
d="M260 354q18 -13 45.5 -30t53.5 -40.5t45 -55t19 -74.5t-14 -74.5t-39.5 -51t-61.5 -29t-79 -9.5q-64 0 -118 31.5t-80 89.5l34 21q20 -49 65.5 -77t99.5 -28q36 0 65 6t49 21t31 39.5t11 60.5q0 35 -18.5 61t-42.5 46t-48 34.5t-35 24.5q-20 16 -50.5 35t-59 43.5t-49 56
t-20.5 72.5q0 81 47.5 122t130.5 41q61 0 107 -28.5t72 -68.5l-31 -27q-10 17 -26.5 33t-36 28t-41.5 19t-45 7q-67 0 -103.5 -30.5t-36.5 -95.5q0 -30 17.5 -55.5t42 -46.5t52 -38.5t48.5 -32.5z" />
    <glyph glyph-name="T" unicode="T" horiz-adv-x="441" 
d="M15 643v37h411v-37h-188v-643h-37v643h-186z" />
    <glyph glyph-name="U" unicode="U" horiz-adv-x="601" 
d="M468 680h37v-494q0 -52 -16 -89.5t-44 -61t-64.5 -34.5t-77.5 -11q-54 0 -93.5 15t-65 41t-37.5 62t-12 78v494h37v-494q0 -44 14 -74.5t38 -49t55 -27t64 -8.5q34 0 64 10.5t52.5 31t35.5 50t13 67.5v494z" />
    <glyph glyph-name="V" unicode="V" horiz-adv-x="500" 
d="M62 680l185 -612l191 612h37l-210 -680h-36l-204 680h37z" />
    <glyph glyph-name="W" unicode="W" horiz-adv-x="720" 
d="M372 680l138 -611l136 611h39l-151 -680h-48l-132 600l-135 -600h-45l-149 680h39l133 -610l140 610h35z" />
    <glyph glyph-name="X" unicode="X" horiz-adv-x="516" 
d="M103 680l161 -298l166 298h44l-188 -337l188 -343h-44l-166 305l-172 -305h-44l193 343l-183 337h45z" />
    <glyph glyph-name="Y" unicode="Y" horiz-adv-x="521" 
d="M235 277l-210 403h42l187 -355l190 355h42l-214 -403v-277h-37v277z" />
    <glyph glyph-name="Z" unicode="Z" horiz-adv-x="498" 
d="M432 680v-29l-319 -614h330v-37h-388v16l331 627h-317v37h363z" />
    <glyph glyph-name="bracketleft" unicode="[" horiz-adv-x="250" 
d="M195 680v-37h-64v-775h61v-37h-100v849h103z" />
    <glyph glyph-name="backslash" unicode="\" horiz-adv-x="313" 
d="M35 680h40l203 -680h-39z" />
    <glyph glyph-name="bracketright" unicode="]" horiz-adv-x="247" 
d="M155 680v-839h-100v37h60v765h-59v37h99z" />
    <glyph glyph-name="asciicircum" unicode="^" horiz-adv-x="337" 
d="M98 463h-43l117 229l110 -229h-41l-70 141z" />
    <glyph glyph-name="underscore" unicode="_" horiz-adv-x="444" 
d="M55 -25h334v-37h-334v37z" />
    <glyph glyph-name="grave" unicode="`" horiz-adv-x="211" 
d="M86 694l75 -137l-29 -24l-82 136z" />
    <glyph glyph-name="a" unicode="a" horiz-adv-x="431" 
d="M223 500q72 0 103 -34t31 -104v-362h-37v64q-17 -33 -48 -53.5t-76 -20.5q-28 0 -53.5 7.5t-45 22.5t-30.5 37t-11 50v126l264 54v75q0 55 -21.5 78t-75.5 23q-12 0 -30 -4.5t-37.5 -11.5t-38 -16t-31.5 -18l-16 37q12 8 31 16.5t41 16t43.5 12.5t37.5 5zM320 249
l-225 -46v-96q0 -20 8.5 -35t22.5 -25t32.5 -15t38.5 -5q26 0 48 10t39 27t26.5 39.5t9.5 48.5v97z" />
    <glyph glyph-name="b" unicode="b" horiz-adv-x="471" 
d="M259 500q71 0 114 -41t43 -112v-203q0 -72 -43.5 -113t-113.5 -41q-42 0 -79.5 19t-56.5 61v-70h-37v720h37v-298q21 35 57 56.5t79 21.5zM379 347q0 56 -32 86t-88 30q-28 0 -52.5 -12t-43 -31.5t-29.5 -45.5t-11 -53v-151q0 -29 10.5 -55t28.5 -45.5t43 -31t54 -11.5
q55 0 87.5 30.5t32.5 86.5v203z" />
    <glyph glyph-name="c" unicode="c" horiz-adv-x="373" 
d="M209 463q-26 0 -47.5 -9.5t-37 -26t-24 -38.5t-8.5 -48v-197q0 -54 32 -85.5t87 -31.5q26 0 53 11.5t43 31.5l26 -29q-10 -12 -24.5 -21.5t-31.5 -16t-34 -10t-32 -3.5q-72 0 -114 41.5t-42 112.5v197q0 34 11.5 63t31.5 50.5t48.5 33.5t62.5 12q38 0 72 -19t57 -51
l-28 -27q-17 26 -44.5 43t-56.5 17z" />
    <glyph glyph-name="d" unicode="d" horiz-adv-x="457" 
d="M344 720h37v-720h-37v49q-23 -32 -59.5 -45.5t-71.5 -13.5q-71 0 -114.5 40t-43.5 111v209q0 70 43.5 110t114.5 40q39 0 75 -18t56 -56v294zM344 321q0 27 -10 53t-27.5 45.5t-41.5 31.5t-52 12q-54 0 -87.5 -29.5t-33.5 -83.5v-209q0 -57 32.5 -85.5t88.5 -28.5
q27 0 51 10t41.5 27.5t28 41.5t10.5 51v164z" />
    <glyph glyph-name="e" unicode="e" horiz-adv-x="416" 
d="M230 27q27 0 56.5 6.5t60.5 34.5l24 -31q-29 -29 -66 -38t-75 -9q-39 0 -71 12.5t-55 35.5t-36 55t-13 70v178q0 35 12.5 64.5t34 50.5t51 32.5t63.5 11.5q69 0 110.5 -43.5t41.5 -115.5v-61l-276 -49v-68q0 -63 37.5 -99.5t100.5 -36.5zM216 463q-25 0 -47.5 -9
t-39.5 -25.5t-27 -39t-10 -48.5v-73l239 43l-4 54q-11 48 -36 73t-75 25z" />
    <glyph glyph-name="f" unicode="f" horiz-adv-x="234" 
d="M96 600q0 39 10 65t27 41t39.5 21.5t47.5 6.5q23 0 47 -6.5t37 -11.5l-10 -33q-15 5 -36 9.5t-37 4.5q-47 0 -67.5 -22.5t-20.5 -74.5v-110h96v-37h-96v-453h-37v453h-86v37h86v110z" />
    <glyph glyph-name="g" unicode="g" horiz-adv-x="440" 
d="M412 -29v-81q0 -33 -12.5 -56.5t-34 -38t-50.5 -21t-63 -6.5h-37q-35 0 -64.5 7t-50.5 22.5t-33 40.5t-12 60q0 51 22.5 81t73.5 41q-19 9 -30.5 21t-17.5 24.5t-8 24t-2 20.5q0 22 10 38.5t34 30.5q-32 23 -48.5 48t-16.5 64v69q0 33 11.5 59t32 43.5t49 27t62.5 9.5
q50 0 97 -25l88 31l9 -38l-69 -22q17 -23 23 -44.5t6 -47.5v-62q0 -71 -39.5 -103t-109.5 -32q-17 0 -30 2t-27 5q-22 -7 -35.5 -19.5t-13.5 -34.5q0 -16 6.5 -28t16 -20t21.5 -13.5t24 -9.5zM109 291q0 -24 10.5 -42.5t27.5 -31t38.5 -18.5t42.5 -6q48 0 82 24t34 74v66
q2 55 -30 80t-87 25q-54 0 -86 -27t-32 -78v-66zM250 -195q29 0 52.5 3t40 12t25 26.5t7.5 46.5v54l-180 55q-51 -3 -77 -30t-26 -74q0 -26 9.5 -43.5t26 -28.5t39 -16t48.5 -5h35v0z" />
    <glyph glyph-name="h" unicode="h" horiz-adv-x="484" 
d="M269 501q70 0 105 -41t35 -112v-348h-37v348q0 54 -24.5 85t-78.5 31q-28 0 -54.5 -14t-47 -36.5t-33 -50.5t-12.5 -55v-308h-37v720h37v-314q8 19 24.5 36t36.5 30t42.5 21t43.5 8z" />
    <glyph glyph-name="i" unicode="i" horiz-adv-x="234" 
d="M100 490h37v-490h-37v490zM95 680h44v-57h-44v57z" />
    <glyph glyph-name="j" unicode="j" horiz-adv-x="236" 
d="M98 490h37v-468q0 -53 -5.5 -91.5t-22 -67.5t-46.5 -51.5t-78 -43.5l-13 32q41 24 66.5 43.5t39 43.5t18 56t4.5 80v467zM97 680h45v-57h-45v57z" />
    <glyph glyph-name="k" unicode="k" horiz-adv-x="371" 
d="M167 261l199 -261h-45l-188 242h-11v-242h-37v710h37v-431h12l172 211h45z" />
    <glyph glyph-name="l" unicode="l" horiz-adv-x="238" 
d="M100 710h37v-710h-37v710z" />
    <glyph glyph-name="m" unicode="m" horiz-adv-x="727" 
d="M522 500q69 0 99.5 -35t30.5 -104v-361h-37v361q0 49 -24 75.5t-73 26.5q-25 0 -48.5 -12.5t-42.5 -32.5t-30.5 -46.5t-11.5 -53.5v-318h-37v345q0 24 -5 45.5t-16.5 37.5t-29 25.5t-41.5 9.5q-27 0 -51 -14.5t-42 -37t-29 -50t-11 -53.5v-308h-37v490h37v-84
q21 42 52.5 68t80.5 26t78.5 -20.5t43.5 -68.5q17 42 57 65.5t87 23.5z" />
    <glyph glyph-name="n" unicode="n" horiz-adv-x="485" 
d="M269 501q70 0 105 -41t35 -112v-348h-37v348q0 56 -23.5 86t-79.5 30q-28 0 -54.5 -14t-47 -36.5t-33 -50.5t-12.5 -55v-308h-37v490h37v-76q28 43 60.5 65t86.5 22z" />
    <glyph glyph-name="o" unicode="o" horiz-adv-x="435" 
d="M217 500q72 0 117 -40.5t45 -112.5v-203q0 -73 -45 -114t-117 -41q-73 0 -117.5 41t-44.5 114v203q0 72 45 112.5t117 40.5zM342 347q0 57 -34 86.5t-91 29.5t-91 -30t-34 -86v-203q0 -56 34 -87t91 -31t91 30.5t34 87.5v203z" />
    <glyph glyph-name="p" unicode="p" horiz-adv-x="468" 
d="M254 500q69 0 113 -40.5t44 -113.5v-202q0 -75 -44 -114.5t-113 -39.5q-41 0 -75 12.5t-57 47.5v-270h-37v710h37v-60q21 32 56.5 51t75.5 19zM374 346q0 57 -32.5 87t-87.5 30q-27 0 -51 -10t-42.5 -27.5t-29 -41.5t-10.5 -53v-176q0 -60 37.5 -94t95.5 -34
q54 0 87 29.5t33 87.5v202z" />
    <glyph glyph-name="q" unicode="q" horiz-adv-x="436" 
d="M213 498q25 0 46 -7t37.5 -18t28.5 -24.5t20 -26.5v68h36v-710h-36v283q-22 -30 -58 -52t-74 -22q-41 0 -70.5 12t-49 32.5t-29 48.5t-9.5 61v201q0 41 12.5 70t34 47.5t50.5 27.5t61 9zM92 143q0 -31 10 -53t26.5 -36.5t38.5 -21t46 -6.5q31 0 55 10t41 28t26 41.5
t9 50.5v175q0 30 -11 54t-29.5 41t-42 26t-48.5 9q-60 0 -90.5 -31.5t-30.5 -85.5v-201z" />
    <glyph glyph-name="r" unicode="r" horiz-adv-x="286" 
d="M229 500q30 0 52 -6l-11 -46q-20 11 -43 11q-19 0 -37.5 -14t-32 -38.5t-22 -58t-8.5 -72.5v-276h-37v490h37v-90q10 29 23 48t27 30.5t27.5 16.5t24.5 5z" />
    <glyph glyph-name="s" unicode="s" horiz-adv-x="358" 
d="M207 263q26 -19 47 -32t37 -28t24.5 -34t8.5 -50q0 -36 -11 -60.5t-30.5 -40t-46 -22t-58.5 -6.5q-53 0 -85.5 19t-58.5 54l26 26q18 -24 34.5 -36.5t31.5 -18t28 -6.5t25 -1q51 0 79.5 19t28.5 71q0 21 -5 33.5t-16.5 23.5t-30.5 23.5t-48 33.5q-24 17 -46.5 31.5
t-40.5 30.5t-29 36.5t-11 49.5q0 54 32 87.5t101 33.5q26 0 46 -6t35 -14t25 -17.5t16 -16.5l-20 -27q-19 18 -46.5 31t-55.5 13q-47 0 -71.5 -19.5t-24.5 -63.5q0 -24 10.5 -40.5t27 -29t35.5 -23.5t37 -24z" />
    <glyph glyph-name="t" unicode="t" horiz-adv-x="298" 
d="M192 31q11 0 29 3.5t49 18.5l13 -36q-16 -8 -40.5 -15.5t-48.5 -7.5q-27 0 -46 9t-30.5 25t-16.5 38.5t-5 48.5v338h-76v37h76v150h37v-150h115v-37h-115v-337q0 -45 17 -65t42 -20z" />
    <glyph glyph-name="u" unicode="u" 
d="M340 490h37v-345q0 -73 -37.5 -114t-109.5 -41q-73 0 -109 41t-36 114v345h37v-345q0 -57 25.5 -87.5t82.5 -30.5t83.5 30.5t26.5 87.5v345z" />
    <glyph glyph-name="v" unicode="v" horiz-adv-x="403" 
d="M202 70l136 420h40l-159 -490h-35l-159 490h40z" />
    <glyph glyph-name="w" unicode="w" horiz-adv-x="561" 
d="M399 68l99 422h38l-119 -491h-37l-99 410l-101 -410h-37l-118 491h39l98 -422l100 422h35z" />
    <glyph glyph-name="x" unicode="x" horiz-adv-x="339" 
d="M75 490l96 -196l95 196h45l-119 -235l126 -255h-42l-105 217l-106 -217h-43l126 255l-116 235h43z" />
    <glyph glyph-name="y" unicode="y" horiz-adv-x="368" 
d="M163 -18l-141 508h40l124 -445l126 445h41l-162 -553q-14 -48 -32 -79t-40.5 -48.5t-49.5 -24.5t-59 -7v37q32 0 55 9.5t40 27.5t29 43t21 56z" />
    <glyph glyph-name="z" unicode="z" horiz-adv-x="390" 
d="M324 490v-31l-224 -422h241v-37h-292v31l228 421h-225v38h272z" />
    <glyph glyph-name="braceleft" unicode="{" horiz-adv-x="297" 
d="M242 695q-32 -23 -52.5 -44.5t-31.5 -42.5t-15.5 -42t-4.5 -44l24 -178l-33 -48l33 -42l-24 -203q3 -59 27.5 -99.5t76.5 -76.5l-14 -35q-40 28 -64 53t-37.5 50.5t-18 52.5t-4.5 57l22 189l-41 52l41 61l-22 165q0 38 7.5 67t23 54t39 46.5t54.5 43.5z" />
    <glyph glyph-name="bar" unicode="|" horiz-adv-x="227" 
d="M95 680h37v-827h-37v827z" />
    <glyph glyph-name="braceright" unicode="}" horiz-adv-x="299" 
d="M100 731q32 -22 55 -43.5t38.5 -46.5t23 -54t7.5 -67l-22 -165l41 -61l-41 -52l22 -189q0 -32 -5 -59.5t-19 -52.5t-38 -49.5t-62 -51.5l-14 35q52 36 76.5 76.5t27.5 99.5l-24 203l31 42l-31 48l24 178q0 24 -5 46t-16.5 43t-31.5 41.5t-51 42.5z" />
    <glyph glyph-name="asciitilde" unicode="~" horiz-adv-x="335" 
d="M120 636q-17 0 -24.5 -12t-12.5 -24l-30 20q17 33 31 45.5t37 12.5q16 0 30.5 -8t28 -17t26 -17t23.5 -8q9 2 15 11t13 23l31 -18q-11 -26 -27.5 -41t-36.5 -15q-21 0 -36.5 7.5t-27.5 16.5t-21.5 16.5t-18.5 7.5z" />
    <glyph glyph-name="uni00A0" unicode="&#xa0;" horiz-adv-x="218" 
 />
    <glyph glyph-name="exclamdown" unicode="&#xa1;" horiz-adv-x="232" 
d="M106 -192l7 468h37l8 -468h-52zM163 426h-58v64h58v-64z" />
    <glyph glyph-name="cent" unicode="&#xa2;" horiz-adv-x="409" 
d="M223 460q-59 0 -95 -32t-36 -94v-179q0 -66 33.5 -96.5t97.5 -30.5q34 0 56 11.5t45 39.5l26 -28q-28 -32 -56.5 -46t-67.5 -14h-30l-19 -121l-38 7l21 126q-56 17 -80.5 54.5t-24.5 97.5v179q0 80 45 122.5t123 42.5h3.5t6.5 -2l19 136l36 -7l-18 -131q29 -10 49 -27.5
t35 -41.5l-32 -27q-21 31 -42 46t-57 15z" />
    <glyph glyph-name="sterling" unicode="&#xa3;" horiz-adv-x="472" 
d="M229 187q0 -50 -14.5 -91t-38.5 -59h241v-37h-343v37q39 0 61.5 13t34 33.5t15 47.5t3.5 56l-6 116h-127v37h124l-7 138q0 56 15.5 95t43 64.5t65 37t82.5 11.5v-37q-93 0 -130.5 -49.5t-36.5 -138.5l7 -121h161v-37h-159q2 -25 3 -46t3 -37q2 -18 3 -33z" />
    <glyph glyph-name="yen" unicode="&#xa5;" horiz-adv-x="506" 
d="M62 331h170l-207 349h42l185 -307l189 307h40l-210 -349h174v-37h-175v-87h175v-37h-175v-170h-37v170h-171v37h171v87h-171v37z" />
    <glyph glyph-name="brokenbar" unicode="&#xa6;" horiz-adv-x="147" 
d="M55 208h37v-325h-37v325zM55 704h37v-325h-37v325z" />
    <glyph glyph-name="section" unicode="&#xa7;" horiz-adv-x="496" 
d="M295 330q32 -15 59 -34t47 -41t31.5 -46t11.5 -49q0 -41 -16.5 -74.5t-58.5 -51.5q19 -29 25.5 -56.5t6.5 -57.5q0 -44 -15 -75t-38.5 -50.5t-51 -28.5t-51.5 -9q-27 0 -51.5 8.5t-45 23t-35 33.5t-21.5 41l31 19q15 -45 50 -66.5t74 -21.5q59 0 88 36t29 90q0 44 -13 73
t-33.5 48.5t-46.5 33t-52 25.5q-33 15 -61.5 32t-49.5 38t-33 47.5t-12 60.5q0 28 8 47t19.5 32t25 21.5t25.5 15.5q-20 29 -25 63.5t-5 60.5q0 37 11.5 68.5t31.5 54.5t47.5 36t59.5 13q31 0 55 -8.5t42.5 -23t31.5 -34t20 -40.5l-33 -16q-14 45 -45 65t-70 20
q-29 0 -50.5 -10.5t-35.5 -29t-21 -43t-7 -51.5q0 -44 14.5 -75t36 -52.5t47.5 -35.5t49 -26zM407 150q0 27 -13 49.5t-34 42t-48 36t-54 31.5q-17 9 -29.5 16t-22.5 13.5t-19 14.5t-20 18q-33 -8 -50 -36t-17 -58q0 -52 34.5 -85t93.5 -59q33 -15 64.5 -32.5t54.5 -37.5
q17 2 28.5 11t18.5 21t10 26.5t3 28.5z" />
    <glyph glyph-name="dieresis" unicode="&#xa8;" horiz-adv-x="281" 
d="M102 576h-52v64h52v-64zM231 576h-50v64h50v-64z" />
    <glyph glyph-name="copyright" unicode="&#xa9;" horiz-adv-x="676" 
d="M55 348q0 75 16.5 139.5t51 112t88 74.5t128.5 27q73 0 126.5 -27.5t88 -75.5t51.5 -112.5t17 -137.5q0 -75 -16.5 -138.5t-51 -110t-88 -73t-127.5 -26.5q-73 0 -127 27t-88.5 73.5t-51.5 110.5t-17 137zM92 348q0 -66 14 -123t43.5 -98.5t76.5 -65.5t113 -24
q65 0 111.5 24.5t76.5 66.5t44 99t14 121q0 66 -13.5 123.5t-43 100.5t-76.5 67.5t-113 24.5q-65 0 -111.5 -25t-76.5 -68t-44.5 -100.5t-14.5 -122.5zM343 493q-55 0 -85.5 -29t-30.5 -87v-73q0 -60 29.5 -88.5t88.5 -28.5q64 0 104 49l23 -28q-27 -32 -57.5 -45t-69.5 -13
q-76 0 -115.5 37t-39.5 117v73q0 76 40.5 114.5t112.5 38.5q42 0 73 -16t55 -52l-29 -25q-20 29 -43.5 42.5t-55.5 13.5z" />
    <glyph glyph-name="ordfeminine" unicode="&#xaa;" horiz-adv-x="300" 
d="M150 690q30 0 47.5 -4.5t27 -16.5t12.5 -33.5t3 -54.5v-191h-41v41q-8 -20 -25.5 -31.5t-32.5 -11.5q-29 0 -46 9.5t-26 24.5t-11.5 32.5t-2.5 32.5v52l146 25v35q0 18 -4 29t-11 16.5t-16 7t-20 1.5q-9 0 -19 -2.5t-19.5 -6.5t-17.5 -7.5t-13 -6.5l-17 33q7 4 18.5 8.5
t24 8.5t24.5 6.5t19 3.5zM199 530l-106 -18v-45q0 -18 14.5 -30t33.5 -12q23 0 40.5 13.5t17.5 30.5v61z" />
    <glyph glyph-name="guillemotleft" unicode="&#xab;" horiz-adv-x="392" 
d="M302 -13l-117 166l116 170l36 -23l-99 -146l99 -144zM173 -13l-118 166l117 170l36 -23l-100 -146l100 -144z" />
    <glyph glyph-name="logicalnot" unicode="&#xac;" horiz-adv-x="381" 
d="M55 328h271v-137h-37v100h-234v37z" />
    <glyph glyph-name="registered" unicode="&#xae;" horiz-adv-x="676" 
d="M55 348q0 75 16.5 139t51 110.5t88 73t128.5 26.5q73 0 126.5 -27t88 -74.5t51.5 -111t17 -136.5q0 -75 -16.5 -138.5t-51 -110t-88 -73t-127.5 -26.5q-73 0 -127 27t-88.5 73.5t-51.5 110.5t-17 137zM92 348q0 -66 14 -123t43.5 -98.5t76.5 -65.5t113 -24
q65 0 111.5 24.5t76.5 66.5t44 99t14 121q0 66 -13.5 123t-43 99t-76.5 66t-113 24q-65 0 -111.5 -24.5t-76.5 -66.5t-44.5 -99t-14.5 -122zM467 417q0 -37 -24 -64t-59 -32l82 -168h-46l-81 166h-62v-166h-39v390h128q46 0 73.5 -23.5t27.5 -71.5v-31v0zM276 356h87
q33 0 46.5 14.5t13.5 47.5v29q1 32 -14.5 45.5t-45.5 13.5h-87v-150z" />
    <glyph glyph-name="macron" unicode="&#xaf;" horiz-adv-x="402" 
d="M352 636h-302v37h302v-37z" />
    <glyph glyph-name="degree" unicode="&#xb0;" horiz-adv-x="314" 
d="M156 690q25 0 44.5 -8.5t32.5 -22.5t19.5 -32t6.5 -37v-31q0 -24 -8.5 -43t-23 -31.5t-33 -19t-38.5 -6.5q-49 0 -75 30.5t-26 69.5v31q0 24 8.5 42.5t22.5 31.5t32.5 19.5t37.5 6.5zM221 590q0 29 -20 46t-45 17q-31 0 -47.5 -20t-16.5 -43v-31q0 -32 19.5 -47.5
t44.5 -15.5q32 0 48.5 18.5t16.5 44.5v31z" />
    <glyph glyph-name="plusminus" unicode="&#xb1;" horiz-adv-x="459" 
d="M244 345h152v-37h-152v-191h-37v191h-152v37h152v178h37v-178zM55 37h349v-37h-349v37z" />
    <glyph glyph-name="twosuperior" unicode="&#xb2;" horiz-adv-x="456" 
d="M227 690q35 0 57 -8t34.5 -22t17 -32.5t4.5 -39.5q0 -25 -8.5 -43t-21.5 -31.5t-29 -23t-31 -18.5q-22 -12 -40 -21.5t-31.5 -20.5t-21 -25.5t-9.5 -36.5h190v-37h-227v37q0 35 12 57t31 37t41 25.5t41 20.5q38 20 52.5 37.5t14.5 42.5t-7 38t-18 19t-24 7t-26 1
q-39 0 -57.5 -16t-35.5 -50l-33 19q17 42 45.5 63t79.5 21z" />
    <glyph glyph-name="threesuperior" unicode="&#xb3;" horiz-adv-x="303" 
d="M267 583q0 -18 -6 -31t-16 -22t-23 -15t-26 -10q13 -1 26.5 -6.5t24 -16t17.5 -26.5t7 -39v-16q0 -35 -32 -58.5t-80 -23.5q-54 0 -81 23.5t-27 67.5h37q0 -19 5.5 -29.5t15.5 -16t22.5 -7t27.5 -1.5q35 0 54.5 9.5t19.5 35.5v16q0 15 -6 27.5t-16.5 22.5t-23 15.5
t-26.5 5.5h-53v37h48q35 0 54 18.5t19 40.5v6q0 22 -6 33.5t-16 17t-22.5 6t-25.5 0.5q-36 0 -53.5 -17.5t-17.5 -46.5h-37q0 27 8.5 46t23.5 31.5t34.5 18t41.5 5.5q56 0 82 -23t26 -71v-7z" />
    <glyph glyph-name="acute" unicode="&#xb4;" horiz-adv-x="210" 
d="M126 694l34 -26l-82 -131l-28 23z" />
    <glyph glyph-name="paragraph" unicode="&#xb6;" horiz-adv-x="435" 
d="M338 680v-680h-38v647h-61v-647h-37v378h-19q-71 0 -99.5 34.5t-28.5 95.5v29q0 68 32.5 105.5t95.5 37.5h155z" />
    <glyph glyph-name="periodcentered" unicode="&#xb7;" horiz-adv-x="167" 
d="M75 283h76v-84h-76v84z" />
    <glyph glyph-name="cedilla" unicode="&#xb8;" horiz-adv-x="195" 
d="M103 0l-14 -54q6 -2 15.5 -7t18.5 -15t15.5 -26.5t6.5 -41.5q0 -38 -24.5 -63t-61.5 -36l-10 25q21 12 39.5 26.5t18.5 40.5q0 28 -8.5 42.5t-19.5 20.5q-12 7 -28 7l16 81h36z" />
    <glyph glyph-name="onesuperior" unicode="&#xb9;" horiz-adv-x="245" 
d="M133 643h-98v37h135v-339h-37v302z" />
    <glyph glyph-name="ordmasculine" unicode="&#xba;" horiz-adv-x="315" 
d="M156 691q29 0 48.5 -9t31.5 -23.5t17.5 -31.5t5.5 -34v-109q0 -24 -8.5 -42t-23 -30t-33 -18t-38.5 -6q-49 0 -75 28.5t-26 69.5v108q0 24 8.5 42t22.5 30.5t32.5 18.5t37.5 6zM221 594q0 17 -5.5 28.5t-15 18.5t-21 10t-23.5 3q-30 0 -46 -16.5t-18 -43.5v-109
q0 -10 3 -20.5t11 -19.5t20 -14.5t30 -5.5q32 0 48.5 17t16.5 44v108z" />
    <glyph glyph-name="guillemotright" unicode="&#xbb;" horiz-adv-x="386" 
d="M143 163l-100 146l37 23l115 -170l-116 -166l-36 23zM272 163l-100 146l37 23l116 -170l-118 -166l-35 23z" />
    <glyph glyph-name="onequarter" unicode="&#xbc;" horiz-adv-x="608" 
d="M133 643h-98v37h135v-339h-37v302zM91 0l337 680h45l-335 -680h-47zM512 139h63v-39h-63v-101h-37v101h-154v39l126 220h65v-220zM475 328h-5l-103 -189h108v189z" />
    <glyph glyph-name="onehalf" unicode="&#xbd;" horiz-adv-x="623" 
d="M133 643h-98v37h135v-339h-37v302zM47 0l337 680h45l-335 -680h-47zM426 365q35 0 57 -8t34.5 -22t17 -32.5t4.5 -39.5q0 -25 -8.5 -43t-21.5 -31.5t-29 -23t-31 -18.5q-22 -12 -40 -21.5t-31.5 -20.5t-21 -25.5t-9.5 -36.5h190v-37h-227v37q0 35 12 57t31 37t41 25.5
t41 20.5q38 20 52.5 37.5t14.5 42.5t-7 38t-18 19t-24 7t-26 1q-39 0 -57.5 -16t-35.5 -50l-33 19q17 42 45.5 63t79.5 21z" />
    <glyph glyph-name="threequarters" unicode="&#xbe;" horiz-adv-x="622" 
d="M271 583q0 -18 -6 -31t-16 -22t-23 -15t-26 -10q13 -1 26.5 -6.5t24 -16t17.5 -26.5t7 -39v-16q0 -35 -32 -58.5t-80 -23.5q-54 0 -81 23.5t-27 67.5h37q0 -19 5.5 -29.5t15.5 -16t22.5 -7t27.5 -1.5q35 0 54.5 9.5t19.5 35.5v16q0 15 -6 27.5t-16.5 22.5t-23 15.5
t-26.5 5.5h-53v37h48q35 0 54 18.5t19 40.5v6q0 22 -6 33.5t-16 17t-22.5 6t-25.5 0.5q-36 0 -53.5 -17.5t-17.5 -46.5h-37q0 27 8.5 46t23.5 31.5t34.5 18t41.5 5.5q56 0 82 -23t26 -71v-7zM151 0l337 680h45l-335 -680h-47zM553 137h63v-39h-63v-101h-37v101h-154v39
l126 220h65v-220zM516 326h-5l-103 -189h108v189z" />
    <glyph glyph-name="questiondown" unicode="&#xbf;" horiz-adv-x="327" 
d="M169 -210q-61 0 -89 26.5t-28 91.5v85q0 24 13 48.5t30 42.5q20 20 35 38t24.5 36.5t14 40.5t4.5 51v49h39v-81q0 -35 -20.5 -73t-48.5 -64q-21 -22 -37.5 -44t-16.5 -48v-72q0 -22 2 -39t10 -28t24.5 -17t45.5 -6q26 0 52.5 18.5t45.5 38.5l25 -28q-28 -29 -60 -47.5
t-65 -18.5zM224 407h-70v84h70v-84z" />
    <glyph glyph-name="Agrave" unicode="&#xc0;" horiz-adv-x="506" 
d="M270 690l211 -690h-38l-75 241h-227l-77 -241h-39l216 690h29zM357 278l-102 342l-104 -342h206zM203 902l75 -137l-29 -24l-82 136z" />
    <glyph glyph-name="Aacute" unicode="&#xc1;" horiz-adv-x="506" 
d="M270 690l211 -690h-38l-75 241h-227l-77 -241h-39l216 690h29zM357 278l-102 342l-104 -342h206zM297 904l34 -26l-82 -131l-28 23z" />
    <glyph glyph-name="Acircumflex" unicode="&#xc2;" horiz-adv-x="506" 
d="M270 690l211 -690h-38l-75 241h-227l-77 -241h-39l216 690h29zM357 278l-102 342l-104 -342h206zM251 852l99 -82l-19 -30l-80 66l-82 -65l-21 29z" />
    <glyph glyph-name="Atilde" unicode="&#xc3;" horiz-adv-x="506" 
d="M270 690l211 -690h-38l-75 241h-227l-77 -241h-39l216 690h29zM357 278l-102 342l-104 -342h206zM198 806q-17 0 -24.5 -12t-12.5 -24l-30 20q17 33 31 45.5t37 12.5q16 0 30.5 -8t28 -17t26 -17t23.5 -8q9 2 15 11t13 23l31 -18q-11 -26 -27.5 -41t-36.5 -15
q-21 0 -36.5 7.5t-27.5 16.5t-21.5 16.5t-18.5 7.5z" />
    <glyph glyph-name="Adieresis" unicode="&#xc4;" horiz-adv-x="506" 
d="M270 690l211 -690h-38l-75 241h-227l-77 -241h-39l216 690h29zM357 278l-102 342l-104 -342h206zM211 745h-52v64h52v-64zM340 745h-50v64h50v-64z" />
    <glyph glyph-name="Aring" unicode="&#xc5;" horiz-adv-x="506" 
d="M270 690l211 -690h-38l-75 241h-227l-77 -241h-39l216 690h29zM357 278l-102 342l-104 -342h206zM256 748q-33 0 -52 21.5t-19 56.5q0 42 22.5 61t48.5 19q35 0 53.5 -22.5t18.5 -57.5q0 -40 -23 -59t-49 -19zM222 824q0 -21 10.5 -29.5t24.5 -8.5q17 0 25.5 10.5
t8.5 27.5q0 23 -10.5 33.5t-23.5 10.5q-16 0 -25.5 -13t-9.5 -31z" />
    <glyph glyph-name="AE" unicode="&#xc6;" horiz-adv-x="728" 
d="M425 335v-298h258v-37h-295v210h-214l-111 -210h-40l345 680h294v-37h-236v-271h198v-37h-199zM388 247v397l-192 -397h192z" />
    <glyph glyph-name="Ccedilla" unicode="&#xc7;" horiz-adv-x="466" 
d="M257 653q-41 0 -70.5 -12.5t-48 -33t-27.5 -47.5t-9 -57v-330q0 -40 11.5 -68t32 -45.5t49 -25t62.5 -7.5q51 0 89 17t63 45l22 -29q-35 -37 -80 -53.5t-94 -16.5q-53 0 -90 14.5t-59.5 39t-32.5 58t-10 71.5v330q0 48 15 83t40.5 58t61 34.5t75.5 11.5q63 0 107.5 -28.5
t68.5 -64.5l-29 -27q-28 40 -66.5 61.5t-80.5 21.5zM283 0l-14 -54q6 -2 15.5 -7t18.5 -15t15.5 -26.5t6.5 -41.5q0 -38 -24.5 -63t-61.5 -36l-10 25q21 12 39.5 26.5t18.5 40.5q0 28 -8.5 42.5t-19.5 20.5q-12 7 -28 7l16 81h36z" />
    <glyph glyph-name="Egrave" unicode="&#xc8;" horiz-adv-x="445" 
d="M132 331v-294h258v-37h-295v680h274v-37h-237v-275h199v-37h-199zM182 894l75 -137l-29 -24l-82 136z" />
    <glyph glyph-name="Eacute" unicode="&#xc9;" horiz-adv-x="445" 
d="M132 331v-294h258v-37h-295v680h274v-37h-237v-275h199v-37h-199zM276 904l34 -26l-82 -131l-28 23z" />
    <glyph glyph-name="Ecircumflex" unicode="&#xca;" horiz-adv-x="445" 
d="M132 331v-294h258v-37h-295v680h274v-37h-237v-275h199v-37h-199zM229 852l99 -82l-19 -30l-80 66l-82 -65l-21 29z" />
    <glyph glyph-name="Edieresis" unicode="&#xcb;" horiz-adv-x="445" 
d="M132 331v-294h258v-37h-295v680h274v-37h-237v-275h199v-37h-199zM190 745h-52v64h52v-64zM319 745h-50v64h50v-64z" />
    <glyph glyph-name="Igrave" unicode="&#xcc;" horiz-adv-x="269" 
d="M125 680h37v-680h-37v680zM80 904l75 -137l-29 -24l-82 136z" />
    <glyph glyph-name="Iacute" unicode="&#xcd;" horiz-adv-x="269" 
d="M128 680h37v-680h-37v680zM175 904l34 -26l-82 -131l-28 23z" />
    <glyph glyph-name="Icircumflex" unicode="&#xce;" horiz-adv-x="269" 
d="M130 680h37v-680h-37v680zM133 853l99 -82l-19 -30l-80 66l-82 -65l-21 29z" />
    <glyph glyph-name="Idieresis" unicode="&#xcf;" horiz-adv-x="269" 
d="M134 680h37v-680h-37v680zM97 743h-52v64h52v-64zM226 743h-50v64h50v-64z" />
    <glyph glyph-name="Eth" unicode="&#xd0;" horiz-adv-x="574" 
d="M28 362h120v318h161q108 0 159 -50t51 -134v-314q0 -55 -16.5 -90t-45 -55.5t-67 -28.5t-82.5 -8h-160v325h-120v37zM482 496q0 42 -14.5 70.5t-39 45.5t-55.5 24t-64 7h-124v-281h128v-37h-128v-288h123q93 0 133.5 36.5t40.5 108.5v314z" />
    <glyph glyph-name="Ntilde" unicode="&#xd1;" horiz-adv-x="618" 
d="M486 680h37v-680h-43l-348 619v-619h-37v680h49l342 -623v623zM244 796q-17 0 -24.5 -12t-12.5 -24l-30 20q17 33 31 45.5t37 12.5q16 0 30.5 -8t28 -17t26 -17t23.5 -8q9 2 15 11t13 23l31 -18q-11 -26 -27.5 -41t-36.5 -15q-21 0 -36.5 7.5t-27.5 16.5t-21.5 16.5
t-18.5 7.5z" />
    <glyph glyph-name="Ograve" unicode="&#xd2;" horiz-adv-x="563" 
d="M287 690q44 0 82.5 -14t67 -40t44.5 -62.5t16 -80.5v-308q0 -45 -16 -81.5t-44 -61.5t-66.5 -38.5t-83.5 -13.5h-12q-46 0 -84.5 13.5t-66.5 38.5t-43.5 61t-15.5 82v308q0 44 16 80t44.5 62t66.5 40.5t82 14.5h13v0zM460 493q0 35 -14 64t-38 50.5t-55 33.5t-66 12h-13
q-35 0 -66.5 -12t-55 -33t-37 -50.5t-13.5 -64.5v-308q0 -37 13 -66.5t36 -50t55 -31t69 -10.5h12q38 0 69.5 10.5t54.5 31t36 50t13 66.5v308zM224 904l75 -137l-29 -24l-82 136z" />
    <glyph glyph-name="Oacute" unicode="&#xd3;" horiz-adv-x="563" 
d="M287 690q44 0 82.5 -14t67 -40t44.5 -62.5t16 -80.5v-308q0 -45 -16 -81.5t-44 -61.5t-66.5 -38.5t-83.5 -13.5h-12q-46 0 -84.5 13.5t-66.5 38.5t-43.5 61t-15.5 82v308q0 44 16 80t44.5 62t66.5 40.5t82 14.5h13v0zM460 493q0 35 -14 64t-38 50.5t-55 33.5t-66 12h-13
q-35 0 -66.5 -12t-55 -33t-37 -50.5t-13.5 -64.5v-308q0 -37 13 -66.5t36 -50t55 -31t69 -10.5h12q38 0 69.5 10.5t54.5 31t36 50t13 66.5v308zM318 904l34 -26l-82 -131l-28 23z" />
    <glyph glyph-name="Ocircumflex" unicode="&#xd4;" horiz-adv-x="563" 
d="M287 690q44 0 82.5 -14t67 -40t44.5 -62.5t16 -80.5v-308q0 -45 -16 -81.5t-44 -61.5t-66.5 -38.5t-83.5 -13.5h-12q-46 0 -84.5 13.5t-66.5 38.5t-43.5 61t-15.5 82v308q0 44 16 80t44.5 62t66.5 40.5t82 14.5h13v0zM460 493q0 35 -14 64t-38 50.5t-55 33.5t-66 12h-13
q-35 0 -66.5 -12t-55 -33t-37 -50.5t-13.5 -64.5v-308q0 -37 13 -66.5t36 -50t55 -31t69 -10.5h12q38 0 69.5 10.5t54.5 31t36 50t13 66.5v308zM272 862l99 -82l-19 -30l-80 66l-82 -65l-21 29z" />
    <glyph glyph-name="Otilde" unicode="&#xd5;" horiz-adv-x="563" 
d="M287 690q44 0 82.5 -14t67 -40t44.5 -62.5t16 -80.5v-308q0 -45 -16 -81.5t-44 -61.5t-66.5 -38.5t-83.5 -13.5h-12q-46 0 -84.5 13.5t-66.5 38.5t-43.5 61t-15.5 82v308q0 44 16 80t44.5 62t66.5 40.5t82 14.5h13v0zM460 493q0 35 -14 64t-38 50.5t-55 33.5t-66 12h-13
q-35 0 -66.5 -12t-55 -33t-37 -50.5t-13.5 -64.5v-308q0 -37 13 -66.5t36 -50t55 -31t69 -10.5h12q38 0 69.5 10.5t54.5 31t36 50t13 66.5v308zM219 806q-17 0 -24.5 -12t-12.5 -24l-30 20q17 33 31 45.5t37 12.5q16 0 30.5 -8t28 -17t26 -17t23.5 -8q9 2 15 11t13 23
l31 -18q-11 -26 -27.5 -41t-36.5 -15q-21 0 -36.5 7.5t-27.5 16.5t-21.5 16.5t-18.5 7.5z" />
    <glyph glyph-name="Odieresis" unicode="&#xd6;" horiz-adv-x="563" 
d="M287 690q44 0 82.5 -14t67 -40t44.5 -62.5t16 -80.5v-308q0 -45 -16 -81.5t-44 -61.5t-66.5 -38.5t-83.5 -13.5h-12q-46 0 -84.5 13.5t-66.5 38.5t-43.5 61t-15.5 82v308q0 44 16 80t44.5 62t66.5 40.5t82 14.5h13v0zM460 493q0 35 -14 64t-38 50.5t-55 33.5t-66 12h-13
q-35 0 -66.5 -12t-55 -33t-37 -50.5t-13.5 -64.5v-308q0 -37 13 -66.5t36 -50t55 -31t69 -10.5h12q38 0 69.5 10.5t54.5 31t36 50t13 66.5v308zM232 745h-52v64h52v-64zM361 745h-50v64h50v-64z" />
    <glyph glyph-name="multiply" unicode="&#xd7;" horiz-adv-x="451" 
d="M386 490l-139 -235l149 -255h-44l-127 217l-126 -217h-44l148 255l-138 235h43l117 -196l118 196h43z" />
    <glyph glyph-name="Oslash" unicode="&#xd8;" horiz-adv-x="544" 
d="M287 690q24 0 47 -4.5t43 -12.5l31 88h37l-35 -106q40 -25 63.5 -66.5t23.5 -95.5v-308q0 -45 -16 -81.5t-44 -61.5t-66.5 -38.5t-83.5 -13.5h-12q-24 0 -45.5 4t-40.5 10l-27 -80h-40l33 95q-42 25 -66 66.5t-24 99.5v308q0 44 16 80t44.5 62t66.5 40.5t82 14.5h13v0z
M102 185q0 -44 17.5 -76t47.5 -52l197 578q-17 8 -37 13t-40 5h-13q-35 0 -66.5 -12t-55 -33t-37 -50.5t-13.5 -64.5v-308v0zM460 493q0 38 -17.5 70t-46.5 53l-196 -577q33 -12 75 -12h12q38 0 69.5 10.5t54.5 31t36 50t13 66.5v308z" />
    <glyph glyph-name="Ugrave" unicode="&#xd9;" horiz-adv-x="601" 
d="M468 680h37v-494q0 -52 -16 -89.5t-44 -61t-64.5 -34.5t-77.5 -11q-54 0 -93.5 15t-65 41t-37.5 62t-12 78v494h37v-494q0 -44 14 -74.5t38 -49t55 -27t64 -8.5q34 0 64 10.5t52.5 31t35.5 50t13 67.5v494zM238 874l75 -137l-29 -24l-82 136z" />
    <glyph glyph-name="Uacute" unicode="&#xda;" horiz-adv-x="601" 
d="M468 680h37v-494q0 -52 -16 -89.5t-44 -61t-64.5 -34.5t-77.5 -11q-54 0 -93.5 15t-65 41t-37.5 62t-12 78v494h37v-494q0 -44 14 -74.5t38 -49t55 -27t64 -8.5q34 0 64 10.5t52.5 31t35.5 50t13 67.5v494zM332 874l34 -26l-82 -131l-28 23z" />
    <glyph glyph-name="Ucircumflex" unicode="&#xdb;" horiz-adv-x="601" 
d="M468 680h37v-494q0 -52 -16 -89.5t-44 -61t-64.5 -34.5t-77.5 -11q-54 0 -93.5 15t-65 41t-37.5 62t-12 78v494h37v-494q0 -44 14 -74.5t38 -49t55 -27t64 -8.5q34 0 64 10.5t52.5 31t35.5 50t13 67.5v494zM286 855l99 -82l-19 -30l-80 66l-82 -65l-21 29z" />
    <glyph glyph-name="Udieresis" unicode="&#xdc;" horiz-adv-x="601" 
d="M468 680h37v-494q0 -52 -16 -89.5t-44 -61t-64.5 -34.5t-77.5 -11q-54 0 -93.5 15t-65 41t-37.5 62t-12 78v494h37v-494q0 -44 14 -74.5t38 -49t55 -27t64 -8.5q34 0 64 10.5t52.5 31t35.5 50t13 67.5v494zM245 746h-52v64h52v-64zM374 746h-50v64h50v-64z" />
    <glyph glyph-name="Yacute" unicode="&#xdd;" horiz-adv-x="521" 
d="M235 277l-210 403h42l187 -355l190 355h42l-214 -403v-277h-37v277zM299 875l34 -26l-82 -131l-28 23z" />
    <glyph glyph-name="Thorn" unicode="&#xde;" horiz-adv-x="427" 
d="M233 539q39 0 65.5 -13.5t43 -36.5t23.5 -53t7 -63v-20q0 -79 -37 -114.5t-102 -35.5h-141v-203h-37v679h37v-140h141zM335 373q0 59 -26 94t-76 35h-141v-262h141q29 0 48.5 9t31.5 24.5t17 36t5 43.5v20z" />
    <glyph glyph-name="agrave" unicode="&#xe0;" horiz-adv-x="430" 
d="M223 500q72 0 103 -34t31 -104v-362h-37v64q-17 -33 -48 -53.5t-76 -20.5q-28 0 -53.5 7.5t-45 22.5t-30.5 37t-11 50v126l264 54v75q0 55 -21.5 78t-75.5 23q-12 0 -30 -4.5t-37.5 -11.5t-38 -16t-31.5 -18l-16 37q12 8 31 16.5t41 16t43.5 12.5t37.5 5zM320 249
l-225 -46v-96q0 -20 8.5 -35t22.5 -25t32.5 -15t38.5 -5q26 0 48 10t39 27t26.5 39.5t9.5 48.5v97zM149 705l75 -137l-29 -24l-82 136z" />
    <glyph glyph-name="aacute" unicode="&#xe1;" horiz-adv-x="430" 
d="M223 500q72 0 103 -34t31 -104v-362h-37v64q-17 -33 -48 -53.5t-76 -20.5q-28 0 -53.5 7.5t-45 22.5t-30.5 37t-11 50v126l264 54v75q0 55 -21.5 78t-75.5 23q-12 0 -30 -4.5t-37.5 -11.5t-38 -16t-31.5 -18l-16 37q12 8 31 16.5t41 16t43.5 12.5t37.5 5zM320 249
l-225 -46v-96q0 -20 8.5 -35t22.5 -25t32.5 -15t38.5 -5q26 0 48 10t39 27t26.5 39.5t9.5 48.5v97zM243 704l34 -26l-82 -131l-28 23z" />
    <glyph glyph-name="acircumflex" unicode="&#xe2;" horiz-adv-x="430" 
d="M223 500q72 0 103 -34t31 -104v-362h-37v64q-17 -33 -48 -53.5t-76 -20.5q-28 0 -53.5 7.5t-45 22.5t-30.5 37t-11 50v126l264 54v75q0 55 -21.5 78t-75.5 23q-12 0 -30 -4.5t-37.5 -11.5t-38 -16t-31.5 -18l-16 37q12 8 31 16.5t41 16t43.5 12.5t37.5 5zM320 249
l-225 -46v-96q0 -20 8.5 -35t22.5 -25t32.5 -15t38.5 -5q26 0 48 10t39 27t26.5 39.5t9.5 48.5v97zM198 674l99 -82l-19 -30l-80 66l-82 -65l-21 29z" />
    <glyph glyph-name="atilde" unicode="&#xe3;" horiz-adv-x="430" 
d="M223 500q72 0 103 -34t31 -104v-362h-37v64q-17 -33 -48 -53.5t-76 -20.5q-28 0 -53.5 7.5t-45 22.5t-30.5 37t-11 50v126l264 54v75q0 55 -21.5 78t-75.5 23q-12 0 -30 -4.5t-37.5 -11.5t-38 -16t-31.5 -18l-16 37q12 8 31 16.5t41 16t43.5 12.5t37.5 5zM320 249
l-225 -46v-96q0 -20 8.5 -35t22.5 -25t32.5 -15t38.5 -5q26 0 48 10t39 27t26.5 39.5t9.5 48.5v97zM145 636q-17 0 -24.5 -12t-12.5 -24l-30 20q17 33 31 45.5t37 12.5q16 0 30.5 -8t28 -17t26 -17t23.5 -8q9 2 15 11t13 23l31 -18q-11 -26 -27.5 -41t-36.5 -15
q-21 0 -36.5 7.5t-27.5 16.5t-21.5 16.5t-18.5 7.5z" />
    <glyph glyph-name="adieresis" unicode="&#xe4;" horiz-adv-x="430" 
d="M223 500q72 0 103 -34t31 -104v-362h-37v64q-17 -33 -48 -53.5t-76 -20.5q-28 0 -53.5 7.5t-45 22.5t-30.5 37t-11 50v126l264 54v75q0 55 -21.5 78t-75.5 23q-12 0 -30 -4.5t-37.5 -11.5t-38 -16t-31.5 -18l-16 37q12 8 31 16.5t41 16t43.5 12.5t37.5 5zM320 249
l-225 -46v-96q0 -20 8.5 -35t22.5 -25t32.5 -15t38.5 -5q26 0 48 10t39 27t26.5 39.5t9.5 48.5v97zM157 567h-52v64h52v-64zM286 567h-50v64h50v-64z" />
    <glyph glyph-name="aring" unicode="&#xe5;" horiz-adv-x="430" 
d="M223 500q72 0 103 -34t31 -104v-362h-37v64q-17 -33 -48 -53.5t-76 -20.5q-28 0 -53.5 7.5t-45 22.5t-30.5 37t-11 50v126l264 54v75q0 55 -21.5 78t-75.5 23q-12 0 -30 -4.5t-37.5 -11.5t-38 -16t-31.5 -18l-16 37q12 8 31 16.5t41 16t43.5 12.5t37.5 5zM320 249
l-225 -46v-96q0 -20 8.5 -35t22.5 -25t32.5 -15t38.5 -5q26 0 48 10t39 27t26.5 39.5t9.5 48.5v97zM203 557q-33 0 -52 21.5t-19 56.5q0 42 22.5 61t48.5 19q35 0 53.5 -22.5t18.5 -57.5q0 -40 -23 -59t-49 -19zM169 633q0 -21 10.5 -29.5t24.5 -8.5q17 0 25.5 10.5
t8.5 27.5q0 23 -10.5 33.5t-23.5 10.5q-16 0 -25.5 -13t-9.5 -31z" />
    <glyph glyph-name="ae" unicode="&#xe6;" horiz-adv-x="689" 
d="M494 26q27 0 56 8t60 33l24 -31q-29 -26 -66 -36.5t-74 -10.5q-55 0 -95.5 21.5t-60.5 62.5q-20 -45 -59 -64.5t-85 -19.5q-28 0 -53.5 7.5t-44.5 22.5t-30 37t-11 50v127l263 43v85q0 55 -22.5 78t-77.5 23q-13 0 -30.5 -4.5t-36.5 -11.5t-36.5 -15.5t-29.5 -17.5
l-18 36q14 10 34 19t41 16t41.5 11t34.5 4q104 0 126 -77q20 35 54.5 56t80.5 21q34 0 62 -7.5t48 -25.5t31 -48t11 -74v-65l-276 -39v-78q0 -63 38 -99.5t101 -36.5zM479 462q-25 0 -47.5 -11t-39.5 -29t-27 -42t-10 -50v-53l239 33v56q0 47 -32 71.5t-83 24.5zM319 237
l-226 -34v-97q0 -20 8.5 -35t22.5 -24.5t32.5 -14.5t38.5 -5q26 0 48.5 7.5t39 21.5t26.5 34t10 46v101z" />
    <glyph glyph-name="ccedilla" unicode="&#xe7;" horiz-adv-x="383" 
d="M209 463q-26 0 -47.5 -9.5t-37 -26t-24 -38.5t-8.5 -48v-197q0 -54 32 -85.5t87 -31.5q26 0 53 11.5t43 31.5l26 -29q-10 -12 -24.5 -21.5t-31.5 -16t-34 -10t-32 -3.5q-72 0 -114 41.5t-42 112.5v197q0 34 11.5 63t31.5 50.5t48.5 33.5t62.5 12q38 0 72 -19t57 -51
l-28 -27q-17 26 -44.5 43t-56.5 17zM224 14l-14 -54q6 -2 15.5 -7t18.5 -15t15.5 -26.5t6.5 -41.5q0 -38 -24.5 -63t-61.5 -36l-10 25q21 12 39.5 26.5t18.5 40.5q0 28 -8.5 42.5t-19.5 20.5q-12 7 -28 7l16 81h36z" />
    <glyph glyph-name="egrave" unicode="&#xe8;" horiz-adv-x="416" 
d="M230 27q27 0 56.5 6.5t60.5 34.5l24 -31q-29 -29 -66 -38t-75 -9q-39 0 -71 12.5t-55 35.5t-36 55t-13 70v178q0 35 12.5 64.5t34 50.5t51 32.5t63.5 11.5q69 0 110.5 -43.5t41.5 -115.5v-61l-276 -49v-68q0 -63 37.5 -99.5t100.5 -36.5zM216 463q-25 0 -47.5 -9
t-39.5 -25.5t-27 -39t-10 -48.5v-73l239 43l-4 54q-11 48 -36 73t-75 25zM157 694l75 -137l-29 -24l-82 136z" />
    <glyph glyph-name="eacute" unicode="&#xe9;" horiz-adv-x="416" 
d="M230 27q27 0 56.5 6.5t60.5 34.5l24 -31q-29 -29 -66 -38t-75 -9q-39 0 -71 12.5t-55 35.5t-36 55t-13 70v178q0 35 12.5 64.5t34 50.5t51 32.5t63.5 11.5q69 0 110.5 -43.5t41.5 -115.5v-61l-276 -49v-68q0 -63 37.5 -99.5t100.5 -36.5zM216 463q-25 0 -47.5 -9
t-39.5 -25.5t-27 -39t-10 -48.5v-73l239 43l-4 54q-11 48 -36 73t-75 25zM251 704l34 -26l-82 -131l-28 23z" />
    <glyph glyph-name="ecircumflex" unicode="&#xea;" horiz-adv-x="416" 
d="M230 27q27 0 56.5 6.5t60.5 34.5l24 -31q-29 -29 -66 -38t-75 -9q-39 0 -71 12.5t-55 35.5t-36 55t-13 70v178q0 35 12.5 64.5t34 50.5t51 32.5t63.5 11.5q69 0 110.5 -43.5t41.5 -115.5v-61l-276 -49v-68q0 -63 37.5 -99.5t100.5 -36.5zM216 463q-25 0 -47.5 -9
t-39.5 -25.5t-27 -39t-10 -48.5v-73l239 43l-4 54q-11 48 -36 73t-75 25zM206 673l99 -82l-19 -30l-80 66l-82 -65l-21 29z" />
    <glyph glyph-name="edieresis" unicode="&#xeb;" horiz-adv-x="416" 
d="M230 27q27 0 56.5 6.5t60.5 34.5l24 -31q-29 -29 -66 -38t-75 -9q-39 0 -71 12.5t-55 35.5t-36 55t-13 70v178q0 35 12.5 64.5t34 50.5t51 32.5t63.5 11.5q69 0 110.5 -43.5t41.5 -115.5v-61l-276 -49v-68q0 -63 37.5 -99.5t100.5 -36.5zM216 463q-25 0 -47.5 -9
t-39.5 -25.5t-27 -39t-10 -48.5v-73l239 43l-4 54q-11 48 -36 73t-75 25zM165 559h-52v64h52v-64zM294 559h-50v64h50v-64z" />
    <glyph glyph-name="igrave" unicode="&#xec;" horiz-adv-x="234" 
d="M92 490h37v-490h-37v490zM49 704l75 -137l-29 -24l-82 136z" />
    <glyph glyph-name="iacute" unicode="&#xed;" horiz-adv-x="234" 
d="M92 490h37v-490h-37v490zM141 704l34 -26l-82 -131l-28 23z" />
    <glyph glyph-name="icircumflex" unicode="&#xee;" horiz-adv-x="234" 
d="M96 490h37v-490h-37v490zM114 682l99 -82l-19 -30l-80 66l-82 -65l-21 29z" />
    <glyph glyph-name="idieresis" unicode="&#xef;" horiz-adv-x="234" 
d="M95 490h37v-490h-37v490zM74 567h-52v64h52v-64zM203 567h-50v64h50v-64z" />
    <glyph glyph-name="eth" unicode="&#xf0;" horiz-adv-x="444" 
d="M376 715l13 -30l-103 -58q54 -72 73.5 -149t19.5 -157v-177q0 -43 -13.5 -72.5t-37 -47.5t-53.5 -26t-63 -8q-84 0 -120.5 42t-36.5 112v190q0 34 7.5 62t26 48.5t48.5 31.5t75 11t70.5 -11.5t48.5 -42.5q-11 60 -31.5 99.5t-45.5 74.5l-122 -64l-14 30l115 62
q-34 38 -62.5 55.5t-65.5 24.5l7 37q30 -9 52 -19t39.5 -22t32.5 -26.5t30 -31.5zM342 321q0 35 -10.5 59.5t-28.5 40t-41.5 22.5t-49.5 7q-65 0 -92.5 -31t-27.5 -85v-190q0 -34 9 -56.5t25.5 -36t38.5 -19t47 -5.5q68 0 99 31.5t31 85.5v177z" />
    <glyph glyph-name="ntilde" unicode="&#xf1;" horiz-adv-x="485" 
d="M269 501q70 0 105 -41t35 -112v-348h-37v348q0 56 -23.5 86t-79.5 30q-28 0 -54.5 -14t-47 -36.5t-33 -50.5t-12.5 -55v-308h-37v490h37v-76q28 43 60.5 65t86.5 22zM181 636q-17 0 -24.5 -12t-12.5 -24l-30 20q17 33 31 45.5t37 12.5q16 0 30.5 -8t28 -17t26 -17
t23.5 -8q9 2 15 11t13 23l31 -18q-11 -26 -27.5 -41t-36.5 -15q-21 0 -36.5 7.5t-27.5 16.5t-21.5 16.5t-18.5 7.5z" />
    <glyph glyph-name="ograve" unicode="&#xf2;" horiz-adv-x="435" 
d="M217 500q72 0 117 -40.5t45 -112.5v-203q0 -73 -45 -114t-117 -41q-73 0 -117.5 41t-44.5 114v203q0 72 45 112.5t117 40.5zM342 347q0 57 -34 86.5t-91 29.5t-91 -30t-34 -86v-203q0 -56 34 -87t91 -31t91 30.5t34 87.5v203zM162 694l75 -137l-29 -24l-82 136z" />
    <glyph glyph-name="oacute" unicode="&#xf3;" horiz-adv-x="435" 
d="M217 500q72 0 117 -40.5t45 -112.5v-203q0 -73 -45 -114t-117 -41q-73 0 -117.5 41t-44.5 114v203q0 72 45 112.5t117 40.5zM342 347q0 57 -34 86.5t-91 29.5t-91 -30t-34 -86v-203q0 -56 34 -87t91 -31t91 30.5t34 87.5v203zM256 704l34 -26l-82 -131l-28 23z" />
    <glyph glyph-name="ocircumflex" unicode="&#xf4;" horiz-adv-x="435" 
d="M217 500q72 0 117 -40.5t45 -112.5v-203q0 -73 -45 -114t-117 -41q-73 0 -117.5 41t-44.5 114v203q0 72 45 112.5t117 40.5zM342 347q0 57 -34 86.5t-91 29.5t-91 -30t-34 -86v-203q0 -56 34 -87t91 -31t91 30.5t34 87.5v203zM209 673l99 -82l-19 -30l-80 66l-82 -65
l-21 29z" />
    <glyph glyph-name="otilde" unicode="&#xf5;" horiz-adv-x="435" 
d="M217 500q72 0 117 -40.5t45 -112.5v-203q0 -73 -45 -114t-117 -41q-73 0 -117.5 41t-44.5 114v203q0 72 45 112.5t117 40.5zM342 347q0 57 -34 86.5t-91 29.5t-91 -30t-34 -86v-203q0 -56 34 -87t91 -31t91 30.5t34 87.5v203zM157 617q-17 0 -24.5 -12t-12.5 -24l-30 20
q17 33 31 45.5t37 12.5q16 0 30.5 -8t28 -17t26 -17t23.5 -8q9 2 15 11t13 23l31 -18q-11 -26 -27.5 -41t-36.5 -15q-21 0 -36.5 7.5t-27.5 16.5t-21.5 16.5t-18.5 7.5z" />
    <glyph glyph-name="odieresis" unicode="&#xf6;" horiz-adv-x="435" 
d="M217 500q72 0 117 -40.5t45 -112.5v-203q0 -73 -45 -114t-117 -41q-73 0 -117.5 41t-44.5 114v203q0 72 45 112.5t117 40.5zM342 347q0 57 -34 86.5t-91 29.5t-91 -30t-34 -86v-203q0 -56 34 -87t91 -31t91 30.5t34 87.5v203zM170 557h-52v64h52v-64zM299 557h-50v64h50
v-64z" />
    <glyph glyph-name="divide" unicode="&#xf7;" horiz-adv-x="571" 
d="M55 307h461v-37h-461v37zM246 172h71v-80h-71v80zM317 401h-71v81h71v-81z" />
    <glyph glyph-name="oslash" unicode="&#xf8;" horiz-adv-x="425" 
d="M37 -59l40 85q-24 20 -37.5 49.5t-13.5 68.5v204q0 72 45 112.5t117 40.5q62 0 102 -30l35 72h38l-45 -95q15 -20 24 -45t9 -55v-204q0 -73 -45.5 -114t-117.5 -41q-43 0 -81 16l-29 -64h-41zM63 144q0 -51 31 -82l181 376q-17 12 -39 19t-48 7q-56 0 -90.5 -30
t-34.5 -86v-204v0zM314 348q0 37 -14 62l-176 -371q29 -13 64 -13q57 0 91.5 30.5t34.5 87.5v204z" />
    <glyph glyph-name="ugrave" unicode="&#xf9;" 
d="M340 490h37v-345q0 -73 -37.5 -114t-109.5 -41q-73 0 -109 41t-36 114v345h37v-345q0 -57 25.5 -87.5t82.5 -30.5t83.5 30.5t26.5 87.5v345zM171 694l75 -137l-29 -24l-82 136z" />
    <glyph glyph-name="uacute" unicode="&#xfa;" 
d="M340 490h37v-345q0 -73 -37.5 -114t-109.5 -41q-73 0 -109 41t-36 114v345h37v-345q0 -57 25.5 -87.5t82.5 -30.5t83.5 30.5t26.5 87.5v345zM265 694l34 -26l-82 -131l-28 23z" />
    <glyph glyph-name="ucircumflex" unicode="&#xfb;" 
d="M340 490h37v-345q0 -73 -37.5 -114t-109.5 -41q-73 0 -109 41t-36 114v345h37v-345q0 -57 25.5 -87.5t82.5 -30.5t83.5 30.5t26.5 87.5v345zM218 682l99 -82l-19 -30l-80 66l-82 -65l-21 29z" />
    <glyph glyph-name="udieresis" unicode="&#xfc;" 
d="M340 490h37v-345q0 -73 -37.5 -114t-109.5 -41q-73 0 -109 41t-36 114v345h37v-345q0 -57 25.5 -87.5t82.5 -30.5t83.5 30.5t26.5 87.5v345zM178 576h-52v64h52v-64zM307 576h-50v64h50v-64z" />
    <glyph glyph-name="yacute" unicode="&#xfd;" horiz-adv-x="368" 
d="M163 -18l-141 508h40l124 -445l126 445h41l-162 -553q-14 -48 -32 -79t-40.5 -48.5t-49.5 -24.5t-59 -7v37q32 0 55 9.5t40 27.5t29 43t21 56zM225 694l34 -26l-82 -131l-28 23z" />
    <glyph glyph-name="thorn" unicode="&#xfe;" horiz-adv-x="470" 
d="M258 500q85 0 121 -41.5t36 -111.5v-203q0 -43 -12 -72.5t-33.5 -47.5t-50 -26t-61.5 -8q-55 0 -84 18.5t-52 50.5v-291h-37v937h37v-262q15 20 30.5 31.5t32 17t34.5 7t39 1.5zM378 347q0 35 -9.5 57.5t-26 35.5t-38.5 18t-46 5q-34 0 -59.5 -10.5t-42.5 -28t-26 -41
t-9 -49.5v-177q0 -33 11.5 -57.5t30.5 -40.5t44 -24t51 -8q65 0 92.5 31t27.5 86v203z" />
    <glyph glyph-name="ydieresis" unicode="&#xff;" horiz-adv-x="368" 
d="M163 -18l-141 508h40l124 -445l126 445h41l-162 -553q-14 -48 -32 -79t-40.5 -48.5t-49.5 -24.5t-59 -7v37q32 0 55 9.5t40 27.5t29 43t21 56zM139 576h-52v64h52v-64zM268 576h-50v64h50v-64z" />
    <glyph glyph-name="Lslash" unicode="&#x141;" horiz-adv-x="453" 
d="M156 680v-290l102 77l18 -32l-120 -85v-313h282v-37h-319v326l-87 -68l-17 29l104 79v314h37z" />
    <glyph glyph-name="lslash" unicode="&#x142;" horiz-adv-x="298" 
d="M43 255l-18 28l110 84v363h37v-342l94 71l17 -28l-111 -85v-346h-37v326z" />
    <glyph glyph-name="ring" unicode="&#x2da;" horiz-adv-x="225" 
d="M113 557q-33 0 -52 21.5t-19 56.5q0 42 22.5 61t48.5 19q35 0 53.5 -22.5t18.5 -57.5q0 -40 -23 -59t-49 -19zM79 633q0 -21 10.5 -29.5t24.5 -8.5q17 0 25.5 10.5t8.5 27.5q0 23 -10.5 33.5t-23.5 10.5q-16 0 -25.5 -13t-9.5 -31z" />
    <glyph glyph-name="glyph57" horiz-adv-x="580" 
d="M451 6q13 -21 32.5 -34.5t46.5 -13.5v-37q-22 0 -38.5 3t-30 10.5t-26.5 20.5t-27 33l-16 24q-27 -14 -57 -17.5t-60 -3.5q-46 0 -84.5 12.5t-66.5 37t-43.5 62.5t-15.5 89v303q0 45 17 81t46 61.5t69 39t85 13.5q47 0 86 -13t68 -38t45 -61t16 -83v-295
q0 -46 -17.5 -89.5t-50.5 -72.5zM275 28q23 0 49.5 5.5t46.5 18.5l-84 135l34 22l84 -136q55 50 55 124v298q0 38 -13.5 67t-37.5 49.5t-56.5 31t-70.5 10.5q-37 0 -69.5 -11t-57 -31.5t-39 -50t-14.5 -65.5v-302q0 -78 47.5 -121.5t125.5 -43.5z" />
    <glyph glyph-name="Euro" unicode="&#x20ac;" horiz-adv-x="546" 
d="M347 673q-70 0 -104.5 -34t-34.5 -107v-82h201v-37h-201v-111h201v-37h-201v-92q0 -141 139 -141q35 0 63 14t57 42l26 -31q-32 -33 -68 -47.5t-78 -14.5q-87 0 -131.5 42.5t-44.5 135.5v92h-124v37h124v111h-124v37h124v82q0 91 44.5 134.5t131.5 43.5q42 0 76 -17.5
t65 -48.5l-25 -31q-26 27 -53.5 43.5t-62.5 16.5z" />
    <glyph glyph-name="florin" unicode="&#x192;" horiz-adv-x="477" 
d="M357 760q33 0 61.5 -12t43.5 -26l-24 -31q-15 14 -39 23t-42 9q-51 0 -77.5 -26.5t-31.5 -68.5l-15 -134h96v-37h-102q-5 -44 -12.5 -106t-15 -127t-14 -126t-11.5 -103q-4 -34 -19.5 -60t-37.5 -43.5t-48.5 -26.5t-53.5 -9v37q27 0 48 9t36 24t24 34t11 40l51 457h-81
v37h86l18 140q4 34 18 58t34 39t45 22t52 7z" />
    <glyph glyph-name="quotedblbase" unicode="&#x201e;" horiz-adv-x="371" 
d="M163 71v-26q0 -34 -3.5 -58t-10 -42t-16 -32t-21.5 -28l-25 17q9 13 16 24.5t11.5 25t6.5 29.5t2 37v53h40zM325 72v-26q0 -34 -3.5 -58t-10 -42t-16 -32t-21.5 -28l-25 17q9 13 16 24.5t11.5 25t6.5 29.5t2 37v53h40z" />
    <glyph glyph-name="ellipsis" unicode="&#x2026;" horiz-adv-x="598" 
d="M266 87h66v-87h-66v87zM447 87h66v-87h-66v87zM85 87h65v-87h-65v87z" />
    <glyph glyph-name="dagger" unicode="&#x2020;" horiz-adv-x="443" 
d="M241 490h144v-37h-144v-453h-37v453h-142v37h142v190h37v-190z" />
    <glyph glyph-name="daggerdbl" unicode="&#x2021;" horiz-adv-x="437" 
d="M239 490h153v-37h-153v-416h153v-37h-153v-188h-37v188h-157v37h157v416h-157v37h157v190h37v-190z" />
    <glyph glyph-name="perthousand" unicode="&#x2030;" horiz-adv-x="878" 
d="M456 701l44 6l-339 -705l-48 -6zM278 499q0 -25 -8.5 -43t-22.5 -29.5t-32.5 -17t-38.5 -5.5q-49 0 -75 27t-26 68v122q0 24 8.5 41.5t22.5 29t32.5 17t37.5 5.5q51 0 76.5 -27.5t25.5 -65.5v-122zM449 299q51 0 76 -28t25 -66v-123q0 -25 -8.5 -42.5t-22.5 -29t-32 -17
t-38 -5.5q-51 0 -77 27t-26 67v123q0 24 8.5 41.5t23 29.5t33 17.5t38.5 5.5zM112 500q0 -22 12.5 -40.5t51.5 -18.5q32 0 48.5 16t16.5 42v124q0 23 -13.5 38.5t-51.5 15.5q-31 0 -47.5 -16t-16.5 -40v-121zM513 206q0 29 -17.5 42.5t-46.5 13.5q-32 0 -49 -17t-17 -40
v-123q0 -23 13 -40t53 -17q32 0 48 15.5t16 41.5v124zM703 299q51 0 75.5 -28t24.5 -66v-123q0 -49 -30 -71.5t-70 -22.5q-51 0 -76.5 27t-25.5 67v123q0 24 8.5 41.5t22.5 29.5t32.5 17.5t38.5 5.5zM766 205q0 11 -2.5 21.5t-9 18.5t-19 12.5t-32.5 4.5q-32 0 -48.5 -17
t-16.5 -40v-123q0 -23 13 -40t52 -17q32 0 47.5 15.5t15.5 41.5v123z" />
    <glyph glyph-name="guilsinglleft" unicode="&#x2039;" horiz-adv-x="263" 
d="M174 0l-119 166l118 170l35 -23l-99 -146l99 -144z" />
    <glyph glyph-name="OE" unicode="&#x152;" horiz-adv-x="742" 
d="M427 335v-298h260v-37h-412q-52 0 -91.5 15.5t-65.5 42t-39.5 62.5t-13.5 76v287q0 50 18 86.5t47 61.5t66.5 37t77.5 12h392v-37h-239v-271h201v-37h-201zM102 196q2 -45 16.5 -75.5t38.5 -49t54.5 -26.5t63.5 -8h115v606h-116q-36 0 -67 -13t-54.5 -34.5t-37 -50.5
t-13.5 -62v-287v0z" />
    <glyph glyph-name="quoteleft" unicode="&#x2018;" horiz-adv-x="106" 
d="M30 502v28q0 30 2 53.5t6.5 42.5t12.5 34.5t20 29.5l25 -17q-19 -26 -22.5 -53.5t-3.5 -62.5v-55h-40z" />
    <glyph glyph-name="quoteright" unicode="&#x2019;" horiz-adv-x="106" 
d="M77 681v-26q0 -34 -3.5 -58t-10 -42t-16 -32t-21.5 -28l-25 17q9 13 16 24.5t11.5 25t6.5 29.5t2 37v53h40z" />
    <glyph glyph-name="quotedblleft" unicode="&#x201c;" horiz-adv-x="221" 
d="M142 502v28q0 30 2 53.5t6.5 42.5t12.5 34.5t20 29.5l25 -17q-19 -26 -22.5 -53.5t-3.5 -62.5v-55h-40zM30 502v28q0 30 2 53.5t6.5 42.5t12.5 34.5t20 29.5l25 -17q-19 -26 -22.5 -53.5t-3.5 -62.5v-55h-40z" />
    <glyph glyph-name="quotedblright" unicode="&#x201d;" horiz-adv-x="201" 
d="M77 679v-26q0 -34 -3.5 -58t-10 -42t-16 -32t-21.5 -28l-25 17q9 13 16 24.5t11.5 25t6.5 29.5t2 37v53h40zM171 679v-26q0 -34 -3.5 -58t-10 -42t-16 -32t-21.5 -28l-25 17q9 13 16 24.5t11.5 25t6.5 29.5t2 37v53h40z" />
    <glyph glyph-name="bullet" unicode="&#x2022;" horiz-adv-x="307" 
d="M85 333h137v-163h-137v163z" />
    <glyph glyph-name="endash" unicode="&#x2013;" horiz-adv-x="449" 
d="M3 307h438v-37h-438v37z" />
    <glyph glyph-name="emdash" unicode="&#x2014;" horiz-adv-x="622" 
d="M4 307h613v-37h-613v37z" />
    <glyph glyph-name="trademark" unicode="&#x2122;" horiz-adv-x="470" 
d="M254 700l54 -100l50 100h32v-210h-33v135l-36 -76h-25l-39 79v-138h-33v210h30zM43 700h154v-32h-61v-178h-33v178h-60v32z" />
    <glyph glyph-name="guilsinglright" unicode="&#x203a;" horiz-adv-x="263" 
d="M155 163l-100 150l36 23l117 -170l-119 -166l-34 23z" />
    <glyph glyph-name="oe" unicode="&#x153;" horiz-adv-x="709" 
d="M516 26q37 0 67.5 14.5t47.5 33.5l23 -30q-13 -16 -31 -26.5t-36.5 -17t-37 -9t-33.5 -2.5q-57 0 -96.5 22t-59.5 64q-24 -46 -61 -66t-83 -20q-80 0 -120.5 44t-40.5 110v208q0 41 13.5 69.5t35.5 47.5t51.5 27.5t60.5 8.5q57 0 91 -23t54 -61q19 38 54 60.5t83 22.5
q71 0 113.5 -36.5t42.5 -115.5v-77l-275 -49v-53q0 -34 13 -61t33 -46t44 -29t47 -10zM216 26q30 0 53.5 10.5t39.5 27.5t24 40t8 47v198q0 30 -10.5 52t-28 37t-40 22t-46.5 7q-62 0 -93 -33t-31 -83v-208q0 -32 10 -54t27.5 -36t40 -20.5t46.5 -6.5zM503 467
q-28 0 -50.5 -10t-39 -26.5t-25.5 -37.5t-9 -44v-87l238 43v46q0 31 -9.5 53t-25.5 36t-36.5 20.5t-42.5 6.5z" />
    <glyph glyph-name="caron" unicode="&#x2c7;" horiz-adv-x="261" 
d="M133 489l-83 108l25 20l57 -75l57 75l22 -20z" />
    <glyph glyph-name="circumflex" unicode="&#x2c6;" horiz-adv-x="302" 
d="M153 682l99 -82l-19 -30l-80 66l-82 -65l-21 29z" />
    <glyph glyph-name="tilde" unicode="&#x2dc;" horiz-adv-x="335" 
d="M117 636q-17 0 -24.5 -12t-12.5 -24l-30 20q17 33 31 45.5t37 12.5q16 0 30.5 -8t28 -17t26 -17t23.5 -8q9 2 15 11t13 23l31 -18q-11 -26 -27.5 -41t-36.5 -15q-21 0 -36.5 7.5t-27.5 16.5t-21.5 16.5t-18.5 7.5z" />
    <glyph glyph-name="breve" unicode="&#x2d8;" horiz-adv-x="296" 
d="M148 604q-42 0 -65 22t-33 56l33 11q8 -29 25 -40.5t40 -11.5q29 0 43 14.5t22 37.5l33 -11q-14 -43 -40 -60.5t-58 -17.5z" />
    <glyph glyph-name="dotaccent" unicode="&#x2d9;" horiz-adv-x="142" 
d="M50 697h42v-57h-42v57z" />
    <glyph glyph-name="hungarumlaut" unicode="&#x2dd;" horiz-adv-x="394" 
d="M232 700l-157 -151l-25 30l153 155zM344 700l-156 -151l-25 30l153 155z" />
    <glyph glyph-name="ogonek" unicode="&#x2db;" horiz-adv-x="231" 
d="M146 0l13 -76q1 0 -10 -4t-25 -15t-25.5 -31t-11.5 -51v-8.5t1 -9.5h93v-32h-128q-2 10 -2.5 17t-0.5 18q0 41 12.5 67t26.5 41q17 18 38 27l-7 57h26z" />
    <glyph glyph-name="minus" unicode="&#x2212;" horiz-adv-x="448" 
d="M393 351v-36h-338v36h338z" />
    <glyph glyph-name="onethird" unicode="&#x2153;" horiz-adv-x="545" 
d="M133 643h-98v37h135v-339h-37v302zM41 0l337 680h45l-335 -680h-47zM505 265q0 -18 -6 -31t-16 -22t-23 -15t-26 -10q13 -1 26.5 -6.5t24 -16t17.5 -26.5t7 -39v-16q0 -35 -32 -58.5t-80 -23.5q-54 0 -81 23.5t-27 67.5h37q0 -19 5.5 -29.5t15.5 -16t22.5 -7t27.5 -1.5
q35 0 54.5 9.5t19.5 35.5v16q0 15 -6 27.5t-16.5 22.5t-23 15.5t-26.5 5.5h-53v37h48q35 0 54 18.5t19 40.5v6q0 22 -6 33.5t-16 17t-22.5 6t-25.5 0.5q-36 0 -53.5 -17.5t-17.5 -46.5h-37q0 27 8.5 46t23.5 31.5t34.5 18t41.5 5.5q56 0 82 -23t26 -71v-7z" />
    <glyph glyph-name="twothirds" unicode="&#x2154;" horiz-adv-x="747" 
d="M223 0l337 680h45l-335 -680h-47zM697 251q0 -18 -6 -31t-16 -22t-23 -15t-26 -10q13 -1 26.5 -6.5t24 -16t17.5 -26.5t7 -39v-16q0 -35 -32 -58.5t-80 -23.5q-54 0 -81 23.5t-27 67.5h37q0 -19 5.5 -29.5t15.5 -16t22.5 -7t27.5 -1.5q35 0 54.5 9.5t19.5 35.5v16
q0 15 -6 27.5t-16.5 22.5t-23 15.5t-26.5 5.5h-53v37h48q35 0 54 18.5t19 40.5v6q0 22 -6 33.5t-16 17t-22.5 6t-25.5 0.5q-36 0 -53.5 -17.5t-17.5 -46.5h-37q0 27 8.5 46t23.5 31.5t34.5 18t41.5 5.5q56 0 82 -23t26 -71v-7zM227 686q35 0 57 -8t34.5 -22t17 -32.5
t4.5 -39.5q0 -25 -8.5 -43t-21.5 -31.5t-29 -23t-31 -18.5q-22 -12 -40 -21.5t-31.5 -20.5t-21 -25.5t-9.5 -36.5h190v-37h-227v37q0 35 12 57t31 37t41 25.5t41 20.5q38 20 52.5 37.5t14.5 42.5t-7 38t-18 19t-24 7t-26 1q-39 0 -57.5 -16t-35.5 -50l-33 19q17 42 45.5 63
t79.5 21z" />
    <glyph glyph-name="Asmall" unicode="&#xf761;" horiz-adv-x="461" 
d="M247 545l182 -545h-38l-61 183h-199l-63 -183h-38l186 545h31zM318 220l-87 260l-87 -260h174z" />
    <glyph glyph-name="Bsmall" unicode="&#xf762;" horiz-adv-x="462" 
d="M383 378q0 -18 -7 -34.5t-17.5 -30t-22.5 -23t-21 -14.5q17 -3 32.5 -12.5t28 -24t19.5 -33.5t7 -40v-30q0 -60 -34 -98t-88 -38h-180v542h162q35 0 58.5 -12t38 -31t21 -42.5t6.5 -47.5zM365 166q0 44 -27.5 68t-66.5 24h-133v-221h142q20 0 36 9t27 23.5t16.5 32
t5.5 34.5v30zM138 295h127q16 0 30.5 6t26 17t18 26.5t6.5 33.5v31q0 25 -7 43t-19.5 30t-29 17.5t-34.5 5.5h-118v-210z" />
    <glyph glyph-name="Csmall" unicode="&#xf763;" horiz-adv-x="436" 
d="M236 517q-34 0 -60.5 -12.5t-43.5 -33.5t-26 -48t-9 -55v-186q0 -37 11.5 -64.5t30.5 -46.5t44 -28.5t53 -9.5q37 0 68 14.5t54 40.5l26 -27q-31 -37 -70.5 -51t-77.5 -14q-45 0 -78 15.5t-55 41t-32.5 59.5t-10.5 70v186q0 45 14.5 79.5t39 58t56.5 36t66 12.5
q52 0 90.5 -23.5t61.5 -58.5l-33 -23q-24 39 -57 53.5t-62 14.5z" />
    <glyph glyph-name="Dsmall" unicode="&#xf764;" horiz-adv-x="486" 
d="M242 541q44 0 78 -16.5t57.5 -43t36 -60.5t12.5 -69v-163q0 -46 -15.5 -81t-41 -59t-58.5 -36.5t-69 -12.5h-142v541h142zM389 352q0 35 -13 63.5t-34 48t-47 30t-53 10.5h-105v-467h105q36 0 63.5 12.5t46 33.5t28 48.5t9.5 57.5v163z" />
    <glyph glyph-name="Esmall" unicode="&#xf765;" horiz-adv-x="421" 
d="M140 250v-213h221v-37h-260v541h242v-37h-204v-217h170v-37h-169z" />
    <glyph glyph-name="Fsmall" unicode="&#xf766;" horiz-adv-x="382" 
d="M342 504h-204v-217h171v-37h-170v-250h-39v541h242v-37z" />
    <glyph glyph-name="Gsmall" unicode="&#xf767;" horiz-adv-x="484" 
d="M231 273h173v-214q-23 -20 -43 -33t-39.5 -20.5t-40.5 -10.5t-47 -3q-86 0 -130 48.5t-44 137.5v187q0 88 50 137t134 49q48 0 84 -18t63 -60l-29 -25q-45 66 -118 66q-66 0 -106.5 -40t-40.5 -109v-187q0 -71 34 -110t103 -39q19 0 35 1.5t31.5 7t31.5 15t34 24.5v159
h-135v37z" />
    <glyph glyph-name="Hsmall" unicode="&#xf768;" horiz-adv-x="558" 
d="M421 541h37v-541h-37v261h-284v-261h-37v541h37v-243h284v243z" />
    <glyph glyph-name="Ismall" unicode="&#xf769;" horiz-adv-x="257" 
d="M110 541h37v-541h-37v541z" />
    <glyph glyph-name="Jsmall" unicode="&#xf76a;" horiz-adv-x="399" 
d="M262 541h37v-414q0 -34 -11 -59.5t-30 -43t-43 -26.5t-50 -9q-33 0 -58.5 11.5t-42.5 30.5t-25.5 44t-8.5 52h37q0 -25 8 -43.5t21.5 -31.5t31.5 -19.5t37 -6.5q24 0 42 8.5t30 22.5t18.5 32t6.5 38v414z" />
    <glyph glyph-name="Ksmall" unicode="&#xf76b;" horiz-adv-x="474" 
d="M138 279l252 262h53l-234 -245l255 -296h-48l-234 269l-44 -45v-224h-38v541h38v-262z" />
    <glyph glyph-name="Lsmall" unicode="&#xf76c;" horiz-adv-x="388" 
d="M139 541v-504h239v-37h-276v541h37z" />
    <glyph glyph-name="Msmall" unicode="&#xf76d;" horiz-adv-x="633" 
d="M143 541l173 -304l173 304h44v-541h-38v476l-165 -291h-27l-166 291v-476h-37v541h43z" />
    <glyph glyph-name="Nsmall" unicode="&#xf76e;" horiz-adv-x="577" 
d="M439 541h38v-541h-40l-300 469v-469h-37v541h37l302 -475v475z" />
    <glyph glyph-name="Osmall" unicode="&#xf76f;" horiz-adv-x="519" 
d="M266 550q38 0 71.5 -14t58.5 -39t39 -59t14 -74v-186q0 -43 -14 -77.5t-38.5 -59t-58 -37.5t-73.5 -13h-11q-40 0 -74 13.5t-58.5 38t-38 59t-13.5 76.5v186q0 41 14 75t38.5 59t58.5 38.5t73 13.5h12v0zM412 364q0 32 -11.5 59t-31.5 47t-46.5 31.5t-56.5 11.5h-12
q-31 0 -57.5 -11.5t-46.5 -31.5t-31.5 -47t-11.5 -59v-186q0 -34 11 -62t30.5 -47.5t46.5 -30t59 -10.5h11q32 0 59 10.5t46.5 30t30.5 47.5t11 62v186z" />
    <glyph glyph-name="Psmall" unicode="&#xf770;" horiz-adv-x="446" 
d="M100 541h151q33 0 58.5 -12.5t42.5 -32.5t26 -46.5t9 -55.5v-26q0 -34 -11.5 -60t-31 -43t-44 -26t-50.5 -9h-112v-230h-38v541zM346 392q0 56 -28.5 84t-66.5 28h-113v-237h113q48 0 71.5 30.5t23.5 70.5v24z" />
    <glyph glyph-name="Qsmall" unicode="&#xf771;" horiz-adv-x="518" 
d="M401 13q8 -16 21 -27t30 -11h16v-37h-20q-28 -1 -48 16.5t-31 36.5l-16 29q-23 -14 -44.5 -19t-43.5 -5h-11q-46 0 -80.5 15.5t-57.5 41t-34.5 59.5t-11.5 70v184q0 45 15.5 79.5t41.5 58t59 36t68 12.5h11q44 0 78.5 -15t58 -40t35.5 -57.5t12 -67.5v-183
q0 -50 -19.5 -87t-44.5 -61zM265 33q19 0 37.5 4.5t34.5 15.5l-61 96l33 21l56 -96q26 25 36 54.5t10 60.5v185q0 38 -13 65t-34 43.5t-47 24.5t-52 8h-11q-35 0 -62.5 -12.5t-46 -33.5t-28.5 -48t-10 -55v-184q0 -37 12.5 -64.5t32.5 -46.5t47 -28.5t55 -9.5h11z" />
    <glyph glyph-name="Rsmall" unicode="&#xf772;" horiz-adv-x="496" 
d="M410 376q0 -31 -9 -56.5t-24 -44t-35 -30t-42 -14.5l116 -231h-43l-116 231h-119v-231h-38v541h177q32 0 57 -11.5t42 -31t25.5 -45t8.5 -53.5v-24v0zM138 268h146q21 0 37 9t26.5 23.5t16 34t5.5 40.5v24q0 27 -8.5 47t-21.5 33t-29.5 19t-32.5 6h-139v-236z" />
    <glyph glyph-name="Ssmall" unicode="&#xf773;" horiz-adv-x="413" 
d="M237 296q33 -17 57.5 -32t40 -33t23.5 -42t8 -59q0 -41 -14.5 -67.5t-37 -42t-50.5 -21.5t-55 -6q-60 0 -99.5 25.5t-57.5 67.5l28 21q20 -38 54 -57.5t72 -19.5q59 0 91 23t32 77q0 30 -10 50t-27 35.5t-41 28t-52 26.5q-31 14 -56 27t-43 29.5t-28 38t-10 53.5
q0 42 16.5 68t40.5 40.5t52 19t51 4.5q48 0 84 -23.5t54 -51.5l-30 -23q-17 26 -44.5 43.5t-60.5 17.5q-19 0 -41 -2t-41 -11.5t-31.5 -28.5t-12.5 -53q0 -25 12 -42.5t31.5 -31t44.5 -24.5t50 -24z" />
    <glyph glyph-name="Tsmall" unicode="&#xf774;" horiz-adv-x="396" 
d="M20 541h356v-37h-160v-504h-37v504h-159v37z" />
    <glyph glyph-name="Usmall" unicode="&#xf775;" horiz-adv-x="556" 
d="M419 541h37v-372q0 -92 -47 -136.5t-129 -44.5q-40 0 -73 13t-57 36.5t-37 57t-13 74.5v372h37v-372q0 -74 40 -109t103 -35q69 0 104 35t35 109v372z" />
    <glyph glyph-name="Vsmall" unicode="&#xf776;" horiz-adv-x="462" 
d="M71 541l159 -476l161 476h41l-185 -541h-35l-182 541h41z" />
    <glyph glyph-name="Wsmall" unicode="&#xf777;" horiz-adv-x="631" 
d="M334 542l116 -463l112 462h39l-133 -541h-36l-116 464l-119 -464h-36l-131 541h38l112 -461l118 462h36z" />
    <glyph glyph-name="Xsmall" unicode="&#xf778;" horiz-adv-x="518" 
d="M114 541l146 -231l149 231h46l-171 -265l174 -276h-46l-152 242l-154 -242h-46l177 276l-168 265h45z" />
    <glyph glyph-name="Ysmall" unicode="&#xf779;" horiz-adv-x="469" 
d="M74 541l154 -266l157 266h44l-183 -310v-231h-37v231l-179 310h44z" />
    <glyph glyph-name="Zsmall" unicode="&#xf77a;" horiz-adv-x="470" 
d="M400 37v-37h-331l1 31l276 474h-264v36h314l-1 -30l-274 -474h279z" />
    <glyph glyph-name="Zcaronsmall" unicode="&#xf6ff;" horiz-adv-x="447" 
d="M400 37v-37h-331l1 31l276 474h-264v36h314l-1 -30l-274 -474h279zM226 539l-83 108l25 20l57 -75l57 75l22 -20z" />
    <glyph glyph-name="Scaronsmall" unicode="&#xf6fd;" horiz-adv-x="418" 
d="M369 215v-85q0 -41 -14.5 -67.5t-37 -42t-50.5 -21.5t-55 -6q-60 0 -100.5 24.5t-56.5 65.5l28 21q20 -41 54 -57.5t72 -16.5q59 0 91 23t32 77v64l-261 134v90q0 42 15.5 68t39 40.5t50.5 19t50 4.5q24 0 46 -7.5t40 -18.5t32 -23.5t21 -23.5l-30 -23q-15 24 -47 41.5
t-66 17.5q-14 0 -34 -2t-38 -11.5t-30.5 -28.5t-12.5 -53v-70zM213 539l-83 108l25 20l57 -75l57 75l22 -20z" />
    <glyph glyph-name="Agravesmall" unicode="&#xf7e0;" 
d="M247 545l182 -545h-38l-61 183h-199l-63 -183h-38l186 545h31zM318 220l-87 260l-87 -260h174zM179 744l75 -137l-29 -24l-82 136z" />
    <glyph glyph-name="Aacutesmall" unicode="&#xf7e1;" 
d="M247 545l182 -545h-38l-61 183h-199l-63 -183h-38l186 545h31zM318 220l-87 260l-87 -260h174zM273 744l34 -26l-82 -131l-28 23z" />
    <glyph glyph-name="Acircumflexsmall" unicode="&#xf7e2;" 
d="M247 545l182 -545h-38l-61 183h-199l-63 -183h-38l186 545h31zM318 220l-87 260l-87 -260h174zM228 722l99 -82l-19 -30l-80 66l-82 -65l-21 29z" />
    <glyph glyph-name="Atildesmall" unicode="&#xf7e3;" 
d="M247 545l182 -545h-38l-61 183h-199l-63 -183h-38l186 545h31zM318 220l-87 260l-87 -260h174zM175 676q-17 0 -24.5 -12t-12.5 -24l-30 20q17 33 31 45.5t37 12.5q16 0 30.5 -8t28 -17t26 -17t23.5 -8q9 2 15 11t13 23l31 -18q-11 -26 -27.5 -41t-36.5 -15
q-21 0 -36.5 7.5t-27.5 16.5t-21.5 16.5t-18.5 7.5z" />
    <glyph glyph-name="Adieresissmall" unicode="&#xf7e4;" 
d="M247 545l182 -545h-38l-61 183h-199l-63 -183h-38l186 545h31zM318 220l-87 260l-87 -260h174zM187 616h-52v64h52v-64zM316 616h-50v64h50v-64z" />
    <glyph glyph-name="Aringsmall" unicode="&#xf7e5;" 
d="M247 545l182 -545h-38l-61 183h-199l-63 -183h-38l186 545h31zM318 220l-87 260l-87 -260h174zM233 597q-33 0 -52 21.5t-19 56.5q0 42 22.5 61t48.5 19q35 0 53.5 -22.5t18.5 -57.5q0 -40 -23 -59t-49 -19zM199 673q0 -21 10.5 -29.5t24.5 -8.5q17 0 25.5 10.5t8.5 27.5
q0 23 -10.5 33.5t-23.5 10.5q-16 0 -25.5 -13t-9.5 -31z" />
    <glyph glyph-name="Egravesmall" unicode="&#xf7e8;" horiz-adv-x="393" 
d="M140 250v-213h221v-37h-260v541h242v-37h-204v-217h170v-37h-169zM168 744l75 -137l-29 -24l-82 136z" />
    <glyph glyph-name="Eacutesmall" unicode="&#xf7e9;" horiz-adv-x="393" 
d="M140 250v-213h221v-37h-260v541h242v-37h-204v-217h170v-37h-169zM262 744l34 -26l-82 -131l-28 23z" />
    <glyph glyph-name="Ecircumflexsmall" unicode="&#xf7ea;" horiz-adv-x="393" 
d="M140 250v-213h221v-37h-260v541h242v-37h-204v-217h170v-37h-169zM215 722l99 -82l-19 -30l-80 66l-82 -65l-21 29z" />
    <glyph glyph-name="Edieresissmall" unicode="&#xf7eb;" horiz-adv-x="393" 
d="M140 250v-213h221v-37h-260v541h242v-37h-204v-217h170v-37h-169zM176 616h-52v64h52v-64zM305 616h-50v64h50v-64z" />
    <glyph glyph-name="Igravesmall" unicode="&#xf7ec;" horiz-adv-x="221" 
d="M110 541h37v-541h-37v541zM66 744l75 -137l-29 -24l-82 136z" />
    <glyph glyph-name="Iacutesmall" unicode="&#xf7ed;" horiz-adv-x="221" 
d="M110 541h37v-541h-37v541zM157 744l34 -26l-82 -131l-28 23z" />
    <glyph glyph-name="Icircumflexsmall" unicode="&#xf7ee;" horiz-adv-x="221" 
d="M110 541h37v-541h-37v541zM113 722l99 -82l-19 -30l-80 66l-82 -65l-21 29z" />
    <glyph glyph-name="Idieresissmall" unicode="&#xf7ef;" horiz-adv-x="221" 
d="M110 541h37v-541h-37v541zM73 616h-52v64h52v-64zM202 616h-50v64h50v-64z" />
    <glyph glyph-name="Ntildesmall" unicode="&#xf7f1;" horiz-adv-x="546" 
d="M439 541h38v-541h-40l-300 469v-469h-37v541h37l302 -475v475zM222 612q-17 0 -24.5 -12t-12.5 -24l-30 20q17 33 31 45.5t37 12.5q16 0 30.5 -8t28 -17t26 -17t23.5 -8q9 2 15 11t13 23l31 -18q-11 -26 -27.5 -41t-36.5 -15q-21 0 -36.5 7.5t-27.5 16.5t-21.5 16.5
t-18.5 7.5z" />
    <glyph glyph-name="Ogravesmall" unicode="&#xf7f2;" horiz-adv-x="495" 
d="M266 550q38 0 71.5 -14t58.5 -39t39 -59t14 -74v-186q0 -43 -14 -77.5t-38.5 -59t-58 -37.5t-73.5 -13h-11q-40 0 -74 13.5t-58.5 38t-38 59t-13.5 76.5v186q0 41 14 75t38.5 59t58.5 38.5t73 13.5h12v0zM412 364q0 32 -11.5 59t-31.5 47t-46.5 31.5t-56.5 11.5h-12
q-31 0 -57.5 -11.5t-46.5 -31.5t-31.5 -47t-11.5 -59v-186q0 -34 11 -62t30.5 -47.5t46.5 -30t59 -10.5h11q32 0 59 10.5t46.5 30t30.5 47.5t11 62v186zM202 744l75 -137l-29 -24l-82 136z" />
    <glyph glyph-name="Oacutesmall" unicode="&#xf7f3;" horiz-adv-x="495" 
d="M266 550q38 0 71.5 -14t58.5 -39t39 -59t14 -74v-186q0 -43 -14 -77.5t-38.5 -59t-58 -37.5t-73.5 -13h-11q-40 0 -74 13.5t-58.5 38t-38 59t-13.5 76.5v186q0 41 14 75t38.5 59t58.5 38.5t73 13.5h12v0zM412 364q0 32 -11.5 59t-31.5 47t-46.5 31.5t-56.5 11.5h-12
q-31 0 -57.5 -11.5t-46.5 -31.5t-31.5 -47t-11.5 -59v-186q0 -34 11 -62t30.5 -47.5t46.5 -30t59 -10.5h11q32 0 59 10.5t46.5 30t30.5 47.5t11 62v186zM295 744l34 -26l-82 -131l-28 23z" />
    <glyph glyph-name="Ocircumflexsmall" unicode="&#xf7f4;" horiz-adv-x="495" 
d="M266 550q38 0 71.5 -14t58.5 -39t39 -59t14 -74v-186q0 -43 -14 -77.5t-38.5 -59t-58 -37.5t-73.5 -13h-11q-40 0 -74 13.5t-58.5 38t-38 59t-13.5 76.5v186q0 41 14 75t38.5 59t58.5 38.5t73 13.5h12v0zM412 364q0 32 -11.5 59t-31.5 47t-46.5 31.5t-56.5 11.5h-12
q-31 0 -57.5 -11.5t-46.5 -31.5t-31.5 -47t-11.5 -59v-186q0 -34 11 -62t30.5 -47.5t46.5 -30t59 -10.5h11q32 0 59 10.5t46.5 30t30.5 47.5t11 62v186zM249 722l99 -82l-19 -30l-80 66l-82 -65l-21 29z" />
    <glyph glyph-name="Otildesmall" unicode="&#xf7f5;" horiz-adv-x="495" 
d="M266 550q38 0 71.5 -14t58.5 -39t39 -59t14 -74v-186q0 -43 -14 -77.5t-38.5 -59t-58 -37.5t-73.5 -13h-11q-40 0 -74 13.5t-58.5 38t-38 59t-13.5 76.5v186q0 41 14 75t38.5 59t58.5 38.5t73 13.5h12v0zM412 364q0 32 -11.5 59t-31.5 47t-46.5 31.5t-56.5 11.5h-12
q-31 0 -57.5 -11.5t-46.5 -31.5t-31.5 -47t-11.5 -59v-186q0 -34 11 -62t30.5 -47.5t46.5 -30t59 -10.5h11q32 0 59 10.5t46.5 30t30.5 47.5t11 62v186zM196 676q-17 0 -24.5 -12t-12.5 -24l-30 20q17 33 31 45.5t37 12.5q16 0 30.5 -8t28 -17t26 -17t23.5 -8q9 2 15 11
t13 23l31 -18q-11 -26 -27.5 -41t-36.5 -15q-21 0 -36.5 7.5t-27.5 16.5t-21.5 16.5t-18.5 7.5z" />
    <glyph glyph-name="Odieresissmall" unicode="&#xf7f6;" horiz-adv-x="495" 
d="M266 550q38 0 71.5 -14t58.5 -39t39 -59t14 -74v-186q0 -43 -14 -77.5t-38.5 -59t-58 -37.5t-73.5 -13h-11q-40 0 -74 13.5t-58.5 38t-38 59t-13.5 76.5v186q0 41 14 75t38.5 59t58.5 38.5t73 13.5h12v0zM412 364q0 32 -11.5 59t-31.5 47t-46.5 31.5t-56.5 11.5h-12
q-31 0 -57.5 -11.5t-46.5 -31.5t-31.5 -47t-11.5 -59v-186q0 -34 11 -62t30.5 -47.5t46.5 -30t59 -10.5h11q32 0 59 10.5t46.5 30t30.5 47.5t11 62v186zM209 616h-52v64h52v-64zM338 616h-50v64h50v-64z" />
    <glyph glyph-name="Ugravesmall" unicode="&#xf7f9;" horiz-adv-x="525" 
d="M419 541h37v-372q0 -92 -47 -136.5t-129 -44.5q-40 0 -73 13t-57 36.5t-37 57t-13 74.5v372h37v-372q0 -74 40 -109t103 -35q69 0 104 35t35 109v372zM217 734l75 -137l-29 -24l-82 136z" />
    <glyph glyph-name="Uacutesmall" unicode="&#xf7fa;" horiz-adv-x="525" 
d="M419 541h37v-372q0 -92 -47 -136.5t-129 -44.5q-40 0 -73 13t-57 36.5t-37 57t-13 74.5v372h37v-372q0 -74 40 -109t103 -35q69 0 104 35t35 109v372zM310 734l34 -26l-82 -131l-28 23z" />
    <glyph glyph-name="Ucircumflexsmall" unicode="&#xf7fb;" horiz-adv-x="525" 
d="M419 541h37v-372q0 -92 -47 -136.5t-129 -44.5q-40 0 -73 13t-57 36.5t-37 57t-13 74.5v372h37v-372q0 -74 40 -109t103 -35q69 0 104 35t35 109v372zM264 722l99 -82l-19 -30l-80 66l-82 -65l-21 29z" />
    <glyph glyph-name="Udieresissmall" unicode="&#xf7fc;" horiz-adv-x="525" 
d="M419 541h37v-372q0 -92 -47 -136.5t-129 -44.5q-40 0 -73 13t-57 36.5t-37 57t-13 74.5v372h37v-372q0 -74 40 -109t103 -35q69 0 104 35t35 109v372zM224 616h-52v64h52v-64zM353 616h-50v64h50v-64z" />
    <glyph glyph-name="Yacutesmall" unicode="&#xf7fd;" horiz-adv-x="457" 
d="M74 541l154 -266l157 266h44l-183 -310v-231h-37v231l-179 310h44zM271 734l34 -26l-82 -131l-28 23z" />
    <glyph glyph-name="Ydieresissmall" unicode="&#xf7ff;" horiz-adv-x="457" 
d="M74 541l154 -266l157 266h44l-183 -310v-231h-37v231l-179 310h44zM185 616h-52v64h52v-64zM314 616h-50v64h50v-64z" />
    <glyph glyph-name="Ccedillasmall" unicode="&#xf7e7;" horiz-adv-x="418" 
d="M236 517q-34 0 -60.5 -12.5t-43.5 -33.5t-26 -48t-9 -55v-186q0 -37 11.5 -64.5t30.5 -46.5t44 -28.5t53 -9.5q37 0 68 14.5t54 40.5l26 -27q-31 -37 -70.5 -51t-77.5 -14q-45 0 -78 15.5t-55 41t-32.5 59.5t-10.5 70v186q0 45 14.5 79.5t39 58t56.5 36t66 12.5
q52 0 90.5 -23.5t61.5 -58.5l-33 -23q-24 39 -57 53.5t-62 14.5zM259 0l-14 -54q6 -2 15.5 -7t18.5 -15t15.5 -26.5t6.5 -41.5q0 -38 -24.5 -63t-61.5 -36l-10 25q21 12 39.5 26.5t18.5 40.5q0 28 -8.5 42.5t-19.5 20.5q-12 7 -28 7l16 81h36z" />
    <glyph glyph-name="greaterequal" unicode="&#x2265;" horiz-adv-x="512" 
d="M449 0h-394v37h394v-37zM448 304l-393 -204v39l323 166l-323 173v41z" />
    <glyph glyph-name="lessequal" unicode="&#x2264;" horiz-adv-x="520" 
d="M444 103l-389 201l389 210v-39l-309 -170l309 -163v-39zM59 37h385v-37h-385v37z" />
    <glyph glyph-name="notequal" unicode="&#x2260;" horiz-adv-x="597" 
d="M401 443h141v-38h-161l-82 -157h243v-37h-264l-77 -143l-28 22l65 121h-183v37h203l84 157h-287v38h307l63 117l28 -21z" />
    <glyph glyph-name="Q.alt" horiz-adv-x="550" 
d="M290 -65l205 -56l-7 -32l-235 63v80q-99 4 -148.5 53t-49.5 128v340q0 47 17.5 81t46.5 55.5t66.5 31.5t77.5 10h14q50 0 89 -14t65.5 -38t40.5 -56.5t14 -69.5v-340q0 -48 -17 -81t-44.5 -54.5t-62.5 -32t-72 -13.5v-55zM92 171q0 -41 14 -69t38 -44.5t55 -23.5t64 -7
h19q37 -1 67.5 10.5t52.5 31t34.5 46t12.5 56.5v340q0 37 -15 63.5t-39.5 44t-55.5 25.5t-62 8h-14q-40 0 -71.5 -11t-53.5 -30t-34 -44.5t-12 -55.5v-340v0z" />
    <glyph glyph-name="y.alt" horiz-adv-x="394" 
d="M196 67l137 423l36 -11l-237 -723l-35 15l78 233l-150 478l35 8z" />
    <glyph glyph-name="k.alt" horiz-adv-x="445" 
d="M121 710v-422l219 215l22 -32l-209 -203q63 -19 105.5 -54t69 -74t41 -77t21.5 -63h-39q-19 55 -44 98t-63 78t-68.5 47.5t-54.5 15.5v-239h-36v710h36z" />
    <glyph glyph-name="g.alt" horiz-adv-x="461" 
d="M103 293q0 -29 11 -50t29 -34.5t40 -19.5t44 -6q57 0 84 28t27 75v73q1 31 -9 51.5t-26.5 32.5t-38 17t-42.5 5q-57 0 -88 -30.5t-31 -75.5v-66v0zM135 33q-26 13 -36.5 30.5t-10.5 43.5q0 16 4.5 27t11.5 19t16 13t17 9q-36 26 -52.5 54t-16.5 64v63q0 37 11.5 64
t32.5 44.5t49 26t61 8.5q12 0 25.5 -3t26.5 -6.5t24 -7.5t18 -7l84 34l16 -42l-68 -16q11 -10 19 -36.5t8 -58.5v-63q0 -38 -11.5 -65t-32 -44.5t-47 -26t-56.5 -8.5q-20 0 -34.5 2t-28.5 7q-17 -3 -30 -14t-13 -34q0 -20 12 -33t41 -27l206 -102v-61q0 -38 -14 -61.5
t-36 -36.5t-49.5 -18t-53.5 -5h-8q-71 0 -115.5 32.5t-44.5 96.5q0 22 3 36.5t8 28.5l36 -14q-4 -12 -6.5 -25t-2.5 -26q0 -29 11.5 -47.5t29 -29t39 -14.5t42.5 -4h8q26 0 48 4t38 14t25 27.5t9 43.5v36z" />
    <glyph glyph-name="e.alt" horiz-adv-x="416" 
d="M230 30q36 0 67 11t48 31l24 -24q-30 -31 -68.5 -43t-70.5 -12q-39 0 -71 12t-55.5 33.5t-36 52.5t-12.5 70v187q0 39 13.5 68t36 47.5t51.5 28t60 9.5q37 0 65.5 -12t47.5 -32.5t28.5 -48.5t9.5 -60v-101h-275v-86q0 -38 12.5 -63t32 -40t44 -21.5t49.5 -6.5zM216 464
q-57 0 -90.5 -33t-33.5 -80v-67h239v64q0 32 -10 54t-26 35.5t-37 20t-42 6.5z" />
    <glyph glyph-name="zerooldstyle" unicode="&#xf730;" horiz-adv-x="492" 
d="M246 500q99 0 145 -49.5t46 -127.5v-156q0 -50 -15.5 -84t-41.5 -54.5t-60.5 -29.5t-73.5 -9q-97 0 -144 49t-47 128v156q0 50 15.5 83.5t41.5 54.5t60.5 30t73.5 9zM400 323q0 41 -12.5 67.5t-33.5 43t-49 23t-59 6.5q-80 0 -117 -38t-37 -102v-156q0 -41 12.5 -68
t33.5 -43t49 -22.5t59 -6.5q80 0 117 37t37 103v156z" />
    <glyph glyph-name="oneoldstyle" unicode="&#xf731;" horiz-adv-x="352" 
d="M82 37h96v413h-93v37h130v-450h85v-37h-218v37z" />
    <glyph glyph-name="twooldstyle" unicode="&#xf732;" horiz-adv-x="488" 
d="M273 206q-55 -33 -93 -71.5t-48 -97.5h291v-37h-328v11q0 38 8.5 69t26 57t44 48.5t63.5 44.5q22 12 45.5 26t43.5 30.5t33 36.5t13 45q0 55 -31.5 75.5t-82.5 20.5q-18 0 -36 -3t-36 -11.5t-35 -24t-32 -39.5l-27 26q35 52 79 70.5t84 18.5q33 0 61 -7.5t48.5 -23
t32.5 -40t12 -58.5q0 -35 -11.5 -59.5t-30.5 -43.5t-43.5 -33.5t-50.5 -29.5z" />
    <glyph glyph-name="threeoldstyle" unicode="&#xf733;" horiz-adv-x="431" 
d="M339 308q0 -49 -25.5 -81.5t-57.5 -49.5q53 -11 75.5 -45t23.5 -87v-34q0 -67 -31 -111.5t-77.5 -70.5t-102 -37t-104.5 -11v37q55 0 105 11.5t88.5 34.5t61 57t22.5 80v45q0 36 -11.5 57.5t-30 33t-41.5 15.5t-45 6h-58v37h50q30 0 52.5 9t37.5 24.5t23 36t8 43.5v63
q0 30 -9 48t-24.5 28t-36 13t-43.5 3q-22 0 -40.5 -7t-34 -17t-27 -22t-18.5 -23l-27 27q23 32 63 55.5t84 23.5q79 0 114.5 -34.5t35.5 -94.5v-63z" />
    <glyph glyph-name="fouroldstyle" unicode="&#xf734;" horiz-adv-x="460" 
d="M352 37h98v-37h-98v-221h-37v221h-265v38l238 452h64v-453zM315 457h-4l-220 -420h224v420z" />
    <glyph glyph-name="fiveoldstyle" unicode="&#xf735;" horiz-adv-x="451" 
d="M208 256q47 0 79.5 -14.5t53.5 -41t30.5 -62.5t9.5 -79v-10q0 -55 -15.5 -96t-40.5 -71t-56 -49.5t-63.5 -31t-62.5 -16.5t-52 -5v34q15 0 39.5 3.5t52.5 13t56.5 26t52 42.5t38 63t14.5 87v14q0 74 -39 115t-97 41h-128l34 271h234v-40h-198l-26 -194h84v0z" />
    <glyph glyph-name="sixoldstyle" unicode="&#xf736;" horiz-adv-x="500" 
d="M254 451q42 0 74 -12t53.5 -33t32.5 -49t11 -61v-153q0 -41 -14.5 -70t-38 -48t-54.5 -27.5t-64 -8.5q-42 0 -73.5 12t-53 32.5t-32 48.5t-10.5 61v405q0 37 14.5 64t38 44t54 25.5t62.5 8.5q27 0 48 -6.5t37.5 -17.5t28.5 -24t22 -27l-29 -24q-21 31 -49 46.5t-58 15.5
q-34 0 -58.5 -9t-41 -24t-24.5 -33.5t-8 -38.5v-160q29 36 60.5 49.5t71.5 13.5zM388 296q0 32 -11.5 54.5t-30.5 36.5t-43 20.5t-49 6.5q-32 0 -57 -11t-41.5 -29.5t-25 -42t-8.5 -48.5v-140q0 -32 11 -54t29.5 -36t42.5 -20.5t49 -6.5q66 0 100 33t34 84v153z" />
    <glyph glyph-name="sevenoldstyle" unicode="&#xf737;" horiz-adv-x="407" 
d="M15 490h358l-196 -701h-36l183 662h-309v39z" />
    <glyph glyph-name="eightoldstyle" unicode="&#xf738;" horiz-adv-x="509" 
d="M412 476q0 -24 -6.5 -43t-17.5 -34t-25.5 -26t-30.5 -20q43 -26 67.5 -56.5t24.5 -69.5v-89q0 -39 -14 -67t-38 -46t-54.5 -26.5t-63.5 -8.5q-42 0 -73.5 11.5t-53 31.5t-32 47t-10.5 58v89q0 24 7.5 43t20 34t29 27t34.5 22q-42 25 -61.5 54t-19.5 69v70q0 38 13 65.5
t35 45t51 25.5t60 8q39 0 69 -11t49.5 -30.5t29.5 -46t10 -56.5v-70v0zM387 227q0 28 -10.5 48t-27.5 33t-39 19t-46 6h-18q-62 0 -93 -31t-31 -75v-89q0 -30 11 -51t29 -34.5t42 -19.5t50 -6q66 0 99.5 31.5t33.5 79.5v89zM132 476q0 -28 9.5 -47.5t25.5 -32t36.5 -18.5
t42.5 -8h18q53 5 82.5 34t29.5 72v70q0 30 -10.5 50t-27.5 33t-39 18.5t-45 5.5q-60 0 -91 -30.5t-31 -76.5v-70v0z" />
    <glyph glyph-name="nineoldstyle" unicode="&#xf739;" horiz-adv-x="499" 
d="M246 505q42 0 73.5 -12t52.5 -33t31.5 -49t10.5 -60v-282q0 -80 -26 -135t-66.5 -89.5t-88 -50t-91.5 -15.5v38q33 0 74 11.5t77 40t60 77.5t24 123v37q-28 -36 -60.5 -52.5t-70.5 -16.5q-43 0 -75 12t-53.5 33t-32 49t-10.5 61v159q0 41 14 70t38 48t55 27.5t64 8.5z
M377 351q0 32 -11 54t-29.5 36t-42 20.5t-48.5 6.5q-66 0 -100 -33t-34 -84v-159q0 -32 11 -54.5t29.5 -36.5t43 -20.5t50.5 -6.5q32 0 56.5 11t41 29t25 42t8.5 49v146z" />
    <glyph glyph-name="asteriskmath" unicode="&#x2217;" horiz-adv-x="510" 
d="M399 420l11 -35l-129 -41l80 -110l-30 -22l-80 110l-83 -111l-30 22l82 111l-130 41l11 35l131 -41v135h37v-135z" />
    <glyph glyph-name="germandbls.alt" horiz-adv-x="549" 
d="M145 0h-37v434h-58v37h57v97q0 45 12 77.5t33 53t49.5 30.5t61.5 10q42 0 73.5 -14.5t52.5 -37.5t31.5 -53t10.5 -62l-97 -160q11 -3 32.5 -13.5t43.5 -32t38 -55.5t16 -82v-99q0 -38 -11.5 -64.5t-30 -43.5t-43 -25t-51.5 -8q-56 0 -92 26.5t-51 63.5l32 23
q5 -14 14 -28t23.5 -25t34 -18t43.5 -7q9 0 24.5 3t31.5 13.5t27.5 31.5t11.5 58v99q0 55 -23 86.5t-51 48.5q-33 19 -75 26l114 188q-1 24 -12.5 46.5t-29 39.5t-40 27.5t-47.5 10.5q-33 0 -55.5 -10t-36.5 -28t-20 -42.5t-6 -52.5v-569z" />
    <glyph glyph-name="germandbls.alt2" horiz-adv-x="515" 
d="M132 0h-37v559q0 48 12 82.5t33 56.5t50.5 32.5t63.5 10.5q38 0 69.5 -9t54 -29.5t35 -52.5t12.5 -78q-30 -35 -46 -57.5t-23.5 -39.5t-8.5 -33.5t-1 -40.5q0 -28 4.5 -45.5t12 -30t18 -21.5t21.5 -20q16 -15 28.5 -29t21.5 -31t13.5 -38.5t4.5 -52.5q0 -40 -12 -68
t-32.5 -44.5t-48 -24t-59.5 -7.5q-28 0 -49.5 8t-38 20.5t-27.5 28.5t-19 32l31 16q8 -15 17 -27.5t21.5 -21.5t29 -14.5t40.5 -5.5q54 0 80 28.5t26 79.5q0 34 -4.5 54t-12.5 32.5t-18 21t-21 18.5q-15 16 -28 30t-22 29.5t-14 35.5t-5 47q0 26 4 47t13.5 41.5t25.5 41
t40 44.5q0 45 -12 70.5t-31.5 38.5t-43 16.5t-46.5 3.5q-34 0 -57.5 -11.5t-38 -31t-20.5 -46t-6 -56.5v-559z" />
    <glyph glyph-name="zero.small" horiz-adv-x="567" 
d="M284 553q49 0 86 -14.5t62 -40t37.5 -59.5t12.5 -73v-188q0 -50 -16.5 -85.5t-44 -58t-63 -33t-74.5 -10.5q-49 0 -86.5 14.5t-62.5 39.5t-37.5 59.5t-12.5 73.5v188q0 50 16.5 85t44.5 58t63.5 33.5t74.5 10.5zM445 366q0 41 -13.5 69.5t-36 46.5t-51.5 26t-60 8
q-40 0 -70.5 -11.5t-50.5 -31.5t-30.5 -47.5t-10.5 -59.5v-188q0 -38 16 -65t40 -45t52.5 -27.5t53.5 -12.5q79 0 120 42t41 108v188z" />
    <glyph glyph-name="one.small" horiz-adv-x="299" 
d="M157 503h-102v37h139v-540h-37v503z" />
    <glyph glyph-name="two.small" horiz-adv-x="487" 
d="M272 224q-30 -19 -54 -38.5t-41.5 -41.5t-29 -48t-15.5 -59h290v-37h-328v13q0 42 9 74.5t27.5 60.5t46 52t64.5 49q22 14 45 28.5t41.5 32.5t30.5 40.5t12 52.5q0 59 -31 84.5t-82 25.5q-16 0 -34.5 -3t-36.5 -11.5t-35.5 -24t-32.5 -40.5l-26 23q35 51 81 72t85 21
q66 0 107.5 -35t41.5 -108q0 -39 -11.5 -66t-30 -47.5t-43 -36.5t-50.5 -33z" />
    <glyph glyph-name="three.small" horiz-adv-x="493" 
d="M396 386q0 -45 -20.5 -70.5t-56.5 -37.5q37 -12 59.5 -41.5t22.5 -74.5v-25q0 -36 -12 -63.5t-32.5 -45.5t-49 -27t-61.5 -9q-30 0 -58.5 6.5t-51.5 21.5t-37 40t-14 62h37q0 -28 11.5 -46t29.5 -28.5t40 -14.5t43 -4q25 0 46.5 6t37.5 19.5t25.5 34t9.5 48.5v25
q0 26 -12.5 45t-32.5 31t-44.5 18t-48.5 6h-54v37h54q25 0 49 3t42.5 12t29.5 26.5t11 45.5v23q0 54 -30.5 76.5t-80.5 22.5q-26 0 -49 -5.5t-40 -18t-27 -32t-10 -47.5h-37q0 34 12.5 60t34.5 44t51 27t62 9q68 0 109.5 -31.5t41.5 -103.5v-24z" />
    <glyph glyph-name="four.small" horiz-adv-x="500" 
d="M364 192h89v-37h-89v-154h-37v154h-242v37l216 349h63v-349zM327 504h-9l-188 -312h197v312z" />
    <glyph glyph-name="five.small" horiz-adv-x="524" 
d="M271 335q44 0 74 -10t48.5 -28t27 -42t8.5 -53v-68q0 -41 -12 -68.5t-33 -44t-49.5 -23.5t-61.5 -7q-76 0 -116 38.5t-40 104.5h37q0 -32 10.5 -52.5t27.5 -32.5t38 -16.5t43 -4.5q67 0 93 27t26 79v68q0 56 -34 76t-87 20h-129l19 243h240v-38h-204l-12 -168h86v0z" />
    <glyph glyph-name="six.small" horiz-adv-x="506" 
d="M274 342q72 0 109.5 -35t37.5 -112v-56q0 -38 -12.5 -66t-34 -46t-51.5 -26.5t-65 -8.5q-72 0 -112.5 35t-40.5 112v264q0 72 39.5 108t106.5 36q40 0 77.5 -20t65.5 -53l-27 -27q-10 13 -24 24.5t-29.5 20t-31.5 13.5t-31 5q-51 0 -80 -24.5t-29 -82.5v-124q10 15 26 27
t34 20t37 12t35 4zM384 195q0 59 -28 84.5t-82 25.5q-27 0 -51 -9t-42 -26t-28.5 -41t-10.5 -54v-36q0 -60 30.5 -85t85.5 -25q27 0 50 6t40 19t26.5 34t9.5 51v56z" />
    <glyph glyph-name="seven.small" horiz-adv-x="383" 
d="M30 541h318l-170 -541h-40l155 504h-263v37z" />
    <glyph glyph-name="eight.small" horiz-adv-x="514" 
d="M408 403q0 -44 -21.5 -78t-61.5 -48q41 -15 67.5 -52.5t26.5 -82.5v-13q0 -36 -14.5 -61.5t-37.5 -42t-52.5 -24.5t-58.5 -8q-32 0 -61 8t-51.5 24.5t-35.5 42t-13 61.5v13q0 46 24.5 83t68.5 52q-40 15 -61 49t-21 77v12q0 33 11.5 58t32 41t48 24t58.5 8t58.5 -8
t48.5 -24t33 -41t12 -58v-12v0zM382 142q0 27 -10 48t-27 36t-40 22.5t-49 7.5q-55 0 -89.5 -23.5t-34.5 -85.5v-18q0 -27 10.5 -46t27.5 -30.5t39.5 -17t46.5 -5.5t46.5 5t40.5 16.5t28.5 30.5t10.5 47v13zM143 403q0 -60 31 -81.5t82 -21.5q48 0 81.5 25t33.5 78v12
q0 25 -9.5 43t-25 29t-36.5 16.5t-44 5.5q-52 0 -82.5 -19.5t-30.5 -74.5v-12v0z" />
    <glyph glyph-name="nine.small" horiz-adv-x="502" 
d="M247 550q42 0 72 -14.5t49.5 -38.5t29 -54.5t9.5 -62.5v-226q0 -46 -13 -77.5t-34.5 -50t-50.5 -26.5t-62 -8q-50 0 -84.5 17.5t-57.5 47.5l22 27q25 -32 58 -43.5t62 -11.5q65 0 94 31.5t29 88.5v95q-26 -37 -58.5 -51.5t-64.5 -14.5q-43 0 -73.5 14t-50 37.5t-29 54
t-9.5 63.5v36q0 41 13 72t35 52t51.5 32t62.5 11zM370 383q0 32 -10 56t-26.5 40.5t-39 25t-47.5 8.5q-33 0 -56.5 -11t-39 -29t-22.5 -41.5t-7 -48.5v-36q0 -64 36.5 -98t88.5 -34q32 0 55.5 11t38.5 29.5t22 42.5t7 49v36z" />
    <glyph glyph-name="h.alt" horiz-adv-x="490" 
d="M385 488v-488h-37v451h-79q-32 0 -59 -13.5t-46.5 -35.5t-30.5 -49.5t-11 -54.5v-298h-37v710h37v-314q17 30 34 48t35 28t37.5 13t40.5 3h116z" />
    <glyph glyph-name="n.alt" horiz-adv-x="490" 
d="M385 489v-489h-37v452h-79q-32 0 -59 -13.5t-46.5 -35.5t-30.5 -49.5t-11 -54.5v-299h-37v490h37v-98q17 30 34 49t35 29.5t37.5 14.5t40.5 4h116z" />
    <glyph glyph-name="E.alt" horiz-adv-x="468" 
d="M127 497q0 -24 8.5 -45t24 -37.5t37 -26t47.5 -9.5h74v-37h-74q-19 0 -42 -8.5t-43 -24.5t-33.5 -38t-13.5 -49v-64q0 -26 9.5 -50t27.5 -42t44 -28.5t58 -10.5h41q18 0 37 6.5t36 17t31 24t21 28.5l31 -19q-10 -16 -25 -32.5t-34.5 -30t-43.5 -22.5t-53 -9h-41
q-31 0 -62 10.5t-56.5 31.5t-41.5 52.5t-16 73.5v64q0 42 28.5 77.5t73.5 60.5q-16 9 -32 22t-28 29.5t-19.5 37.5t-7.5 48v38q0 33 14 61.5t36.5 49t51.5 32.5t59 12h37q15 0 31.5 -5t33.5 -13.5t32.5 -20t28.5 -23.5l-26 -31q-8 8 -18 17.5t-22.5 18t-27 14.5t-32.5 6h-37
q-25 0 -47.5 -7.5t-39.5 -22t-27 -36.5t-10 -52v-38z" />
    <glyph glyph-name="a.alt" horiz-adv-x="431" 
d="M227 499q48 0 74 -12.5t38 -32.5t14 -44.5t2 -47.5v-362h-37v85q-9 -19 -25 -35.5t-35.5 -29.5t-41.5 -20.5t-44 -7.5q-36 0 -58.5 10t-35.5 25t-18 33.5t-5 35.5v54q0 34 13.5 58.5t35.5 41t50.5 26.5t57.5 16t56.5 9t48.5 4v53q0 33 -5.5 53.5t-16.5 31.5t-28 15t-40 4
q-19 0 -39.5 -5t-38 -12.5t-31.5 -16t-22 -15.5l-14 37q12 10 29.5 19t37 15.5t40 10.5t38.5 4zM318 268q-44 -3 -85 -9.5t-72.5 -20t-50 -35t-18.5 -54.5v-53q0 -27 21.5 -47t59.5 -20q30 0 56.5 14t46 34.5t31 43.5t11.5 41v106z" />
    <glyph glyph-name="Ssmall.alt" horiz-adv-x="410" 
d="M364 215v-85q0 -41 -14.5 -67.5t-37 -42t-50.5 -21.5t-55 -6q-60 0 -100.5 24.5t-56.5 65.5l28 21q20 -41 54 -57.5t72 -16.5q59 0 91 23t32 77v64l-261 134v90q0 42 15.5 68t39 40.5t50.5 19t50 4.5q24 0 46 -7.5t40 -18.5t32 -23.5t21 -23.5l-30 -23q-15 24 -47 41.5
t-66 17.5q-14 0 -34 -2t-38 -11.5t-30.5 -28.5t-12.5 -53v-70z" />
    <glyph glyph-name="s.alt" horiz-adv-x="358" 
d="M327 191v-72q0 -63 -34.5 -96t-100.5 -33q-53 0 -92.5 21.5t-65.5 51.5l29 29q15 -19 32.5 -31.5t35 -20t34 -10.5t28.5 -3q50 0 73 23.5t23 66.5v53l-229 122v90q0 54 32.5 86t101.5 32q21 0 38 -3.5t32 -10.5t30 -17.5t31 -23.5l-23 -28q-17 14 -30.5 23t-26.5 14
t-25 7t-26 2q-47 0 -72 -17.5t-25 -62.5v-69z" />
    <glyph glyph-name="S.alt" horiz-adv-x="462" 
d="M420 262v-108q0 -43 -14 -74.5t-39.5 -51t-61.5 -29t-79 -9.5q-32 0 -62.5 8t-57 23.5t-47 38t-32.5 52.5l35 20q9 -24 25.5 -43.5t39 -33t48 -21t52.5 -7.5q36 0 65 6t49 20.5t31 39t11 61.5v85l-311 179v109q0 81 47.5 122t130.5 41q61 0 106.5 -29t71.5 -69l-30 -26
q-10 17 -26.5 33t-36 28t-41.5 19t-45 7q-67 0 -103.5 -30.5t-36.5 -95.5v-90z" />
    <glyph glyph-name="ffl" unicode="&#xfb04;" horiz-adv-x="664" 
d="M211 724q29 0 61.5 -13.5t59.5 -29.5q20 26 47 38t57 12q16 0 33.5 -3.5t34.5 -8.5t32.5 -12t25.5 -13h12v-694h-38v665q-26 14 -54 21.5t-46 7.5q-51 0 -73 -28.5t-22 -76.5v-99h97v-37h-97v-453h-37v453h-72v37h72v99q0 20 2.5 32.5t7.5 25.5q-29 20 -57 30t-46 10
q-26 0 -43 -9t-27 -23.5t-14 -33.5t-4 -39v-93h73v-37h-73v-452h-37v452h-86v37h86v93q0 69 35 105.5t90 36.5z" />
    <glyph glyph-name="ffi" unicode="&#xfb03;" horiz-adv-x="638" 
d="M192 724q42 0 76.5 -16t61.5 -31q4 6 13 15.5t23 18t32 14.5t39 6q20 0 43 -8.5t43 -19.5q23 -12 45 -29l-18 -33q-20 16 -40 27q-17 10 -36.5 18t-36.5 8q-47 0 -70 -31.5t-23 -73.5v-99h95v-37h-95v-453h-37v453h-86v37h86v99q0 29 9 51q-32 23 -65 35t-59 12
q-25 0 -41.5 -9t-26.5 -23.5t-14 -33.5t-4 -39v-93h72v-37h-72v-452h-37v452h-86v37h86v93q0 69 34.5 105.5t88.5 36.5zM527 490h37v-490h-37v490z" />
    <glyph glyph-name="ft" horiz-adv-x="519" 
d="M426 34q16 0 36.5 5.5t34.5 13.5l12 -33q-14 -8 -37.5 -15.5t-49.5 -7.5q-27 0 -46 9t-30 25t-16 38.5t-5 48.5v335h-89v37h89v163q-7 5 -21 12t-30 13.5t-33 11t-31 4.5q-25 0 -42 -9t-27 -23.5t-14 -33.5t-4 -39v-99h79v-37h-79v-453h-37v453h-86v37h86v99
q0 69 35 105.5t89 36.5q28 0 50.5 -5.5t41 -14t33.5 -19t28 -19.5v-183h114v-37h-115v-338q0 -28 8 -44.5t18.5 -24.5t21 -10t16.5 -2z" />
    <glyph glyph-name="foursuperior" unicode="&#x2074;" horiz-adv-x="354" 
d="M251 460h63v-39h-63v-101h-37v101h-154v39l126 220h65v-220zM214 649h-5l-103 -189h108v189z" />
    <glyph glyph-name="Zcaron" unicode="&#x17d;" horiz-adv-x="498" 
d="M432 680v-29l-319 -614h330v-37h-388v16l331 627h-317v37h363zM242 673l-83 108l25 20l57 -75l57 75l22 -20z" />
    <glyph glyph-name="zcaron" unicode="&#x17e;" horiz-adv-x="390" 
d="M324 490v-31l-224 -422h241v-37h-292v31l228 421h-225v38h272zM190 489l-83 108l25 20l57 -75l57 75l22 -20z" />
    <glyph glyph-name="Scaron" unicode="&#x160;" horiz-adv-x="475" 
d="M433 262v-108q0 -43 -14 -74.5t-39.5 -51t-61.5 -29t-79 -9.5q-32 0 -62.5 8t-57 23.5t-47 38t-32.5 52.5l35 20q9 -24 25.5 -43.5t39 -33t48 -21t52.5 -7.5q36 0 65 6t49 20.5t31 39t11 61.5v85l-311 179v109q0 81 47.5 122t130.5 41q61 0 106.5 -29t71.5 -69l-30 -26
q-10 17 -26.5 33t-36 28t-41.5 19t-45 7q-67 0 -103.5 -30.5t-36.5 -95.5v-90zM242 686l-83 108l25 20l57 -75l57 75l22 -20z" />
    <glyph glyph-name="scaron" unicode="&#x161;" horiz-adv-x="354" 
d="M323 191v-72q0 -63 -34.5 -96t-100.5 -33q-53 0 -92.5 21.5t-65.5 51.5l29 29q15 -19 32.5 -31.5t35 -20t34 -10.5t28.5 -3q50 0 73 23.5t23 66.5v53l-229 122v90q0 54 32.5 86t101.5 32q21 0 38 -3.5t32 -10.5t30 -17.5t31 -23.5l-23 -28q-17 14 -30.5 23t-26.5 14
t-25 7t-26 2q-47 0 -72 -17.5t-25 -62.5v-69zM182 499l-83 108l25 20l57 -75l57 75l22 -20z" />
    <glyph glyph-name="Ydieresis" unicode="&#x178;" horiz-adv-x="521" 
d="M235 277l-210 403h42l187 -355l190 355h42l-214 -403v-277h-37v277zM213 726h-52v64h52v-64zM342 726h-50v64h50v-64z" />
    <glyph glyph-name="glyph330" horiz-adv-x="544" 
d="M122 -76l286 837h37l-283 -837h-40zM287 690q44 0 82.5 -14t67 -40t44.5 -62.5t16 -80.5v-308q0 -45 -16 -81.5t-44 -61.5t-66.5 -38.5t-83.5 -13.5h-12q-46 0 -84.5 13.5t-66.5 38.5t-43.5 61t-15.5 82v308q0 44 16 80t44.5 62t66.5 40.5t82 14.5h13v0zM460 493
q0 35 -14 64t-38 50.5t-55 33.5t-66 12h-13q-35 0 -66.5 -12t-55 -33t-37 -50.5t-13.5 -64.5v-308q0 -37 13 -66.5t36 -50t55 -31t69 -10.5h12q38 0 69.5 10.5t54.5 31t36 50t13 66.5v308z" />
    <glyph glyph-name="glyph331" horiz-adv-x="425" 
d="M188 501q36 0 65.5 -10.5t51.5 -30.5t34 -48t12 -64v-204q0 -73 -45.5 -114t-117.5 -41q-73 0 -117.5 41t-44.5 114v204q0 72 45 112.5t117 40.5zM314 348q0 57 -34.5 86.5t-91.5 29.5q-56 0 -90.5 -30t-34.5 -86v-204q0 -56 34.5 -87t90.5 -31q57 0 91.5 30.5t34.5 87.5
v204zM37 -59l288 602h38l-285 -602h-41z" />
    <glyph glyph-name="quotesinglbase" unicode="&#x201a;" horiz-adv-x="209" 
d="M163 70v-26q0 -34 -3.5 -58t-10 -42t-16 -32t-21.5 -28l-25 17q9 13 16 24.5t11.5 25t6.5 29.5t2 37v53h40z" />
    <glyph glyph-name="glyph333" horiz-adv-x="689" 
d="M218 499q71 0 102.5 -33.5t31.5 -104.5l-4 -262q-16 -60 -59 -85t-95 -25q-28 0 -53.5 7.5t-44.5 22.5t-30 37t-11 50v127l263 43v85q0 55 -22.5 78t-77.5 23q-13 0 -30.5 -4.5t-36.5 -11.5t-36.5 -15.5t-29.5 -17.5l-18 36q14 10 34 19t41 16t41.5 11t34.5 4zM319 237
l-226 -34v-97q0 -20 8.5 -35t22.5 -24.5t32.5 -14.5t38.5 -5q26 0 48.5 7.5t39 21.5t26.5 34t10 46v101zM494 26q27 0 56 8t60 33l24 -31q-29 -26 -66 -36.5t-74 -10.5q-78 0 -125.5 43t-47.5 120l3 187q0 35 11.5 64.5t32 50.5t49 33t62.5 12t62 -7.5t48 -25.5t31 -48
t11 -74v-65l-276 -39v-78q0 -63 38 -99.5t101 -36.5zM479 462q-25 0 -47.5 -11t-39.5 -29t-27 -42t-10 -50v-53l239 33v56q0 47 -32 71.5t-83 24.5z" />
    <glyph glyph-name="Qtounge" horiz-adv-x="641" 
d="M348 187l30 22l129 -203q11 -19 30 -33.5t54 -14.5v-37q-22 0 -38.5 3t-30 10.5t-26 20.5t-26.5 33z" />
    <glyph glyph-name="dotlessi" unicode="&#x131;" horiz-adv-x="237" 
d="M95 490h37v-490h-37v490z" />
    <glyph glyph-name="fraction" unicode="&#x2044;" horiz-adv-x="393" 
d="M7 0l337 680h45l-335 -680h-47z" />
    </font>
</defs>
</svg>
